<svg xmlns="http://www.w3.org/2000/svg" viewBox="0 0 317.55 110.55"><defs><style>.cls-1{fill:#fff;}</style></defs><g id="Vrstva_2" data-name="Vrstva 2"><g id="Vrstva_1-2" data-name="Vrstva 1"><path class="cls-1" d="M32.51,9.1a66.32,66.32,0,0,1,12.81,1.45l1.66.36V5.63a4.79,4.79,0,0,0-4.63-4.42H41V3.56c-1.38-.21-2.8-.39-4.38-.51V.74l-1-.29a10.9,10.9,0,0,0-6.2,0l-1,.29V3.05c-1.58.12-3,.3-4.38.51V1.2H22.71a4.84,4.84,0,0,0-4.62,4.18v5.52l1.65-.36A66.27,66.27,0,0,1,32.51,9.1m-13-3.47h0a3.45,3.45,0,0,1,3.25-3.06V5.15a64.36,64.36,0,0,1,6.93-.81h.18V1.76a9.38,9.38,0,0,1,5.42,0V4.33h.19a64.47,64.47,0,0,1,6.92.81V2.57a3.45,3.45,0,0,1,3.26,3.06h0V9.22A68.31,68.31,0,0,0,32.53,7.73,68.21,68.21,0,0,0,19.46,9.22Z"/><path class="cls-1" d="M64.35,19.76c-8.8-5.06-20.09-7.91-31.77-8h-.1c-11.68.11-23,3-31.72,8l-.07,0L0,20.13V79.85A8.23,8.23,0,0,0,2.83,86l26.69,23.42a4.62,4.62,0,0,0,6,0L62.24,86a8.2,8.2,0,0,0,2.83-6.15V20.14ZM63.7,79.85A6.85,6.85,0,0,1,61.33,85L34.65,108.41a3.27,3.27,0,0,1-4.24,0L3.73,85a6.85,6.85,0,0,1-2.37-5.14V77.77a8,8,0,0,0,1.49,1.7l26.66,23.41.32.26,2.7,2.37,2.7-2.37.09-.08c.08,0,.15-.12.23-.18L62.23,79.47a8.65,8.65,0,0,0,1.47-1.68Zm0-6.55A6.7,6.7,0,0,1,62.61,77a6.45,6.45,0,0,1-1.28,1.49L60,79.58,34.65,101.85a1.56,1.56,0,0,1-.2.16l0,0a3.25,3.25,0,0,1-3.76,0h0l-.23-.19L5,79.58l-1.3-1.14a6.79,6.79,0,0,1-1.29-1.5,6.68,6.68,0,0,1-1.09-3.66V21l0,0c8.32-4.79,19.18-7.73,31.09-7.84h.09c11.9.11,22.76,3,31.08,7.84l0,0Z"/><path class="cls-1" d="M55.72,49.83a28.12,28.12,0,0,1,.82-5.66S50.93,42,50.93,48.5C50.93,54.61,59,54.14,60,61V53.17s-4.31-.9-4.31-3.34"/><path class="cls-1" d="M31.88,75.71c0-7.49-7-19.73-22.06-19.73h0c0,.48-.4,1.9-.91,1.9H6V69l.92-.93.46-.47,9.22-9.35A19.19,19.19,0,0,1,22,60.87L9.12,71.52l1,1.19A.85.85,0,0,1,10,73.89L8.45,75.21l-.34.3-.69.59,7.37,6.46L16.69,81A1,1,0,0,1,18,81L20,83,22,80.22s-3.62-10.09,4.88-14.64a18.47,18.47,0,0,1,3.67,9.94,5.8,5.8,0,0,0-3.65,5.84l-6.79,5.83L33.46,99V94.63a.9.9,0,0,1,.91-.88h2.12l3.26-7.62s-7.87-2.92-7.87-10.41"/><path class="cls-1" d="M45.08,85l-5,7.35,18.8-16.5A3.46,3.46,0,0,0,60,73.28V63.72c-1.28,7.76-15,12.35-15,21.29"/><path class="cls-1" d="M20.25,29.93c.64,0,2.61-.5,2.61-.9s-.53-2.06-2.66-.64a.55.55,0,0,0-.23.33c-.08.39-.2,1.21.28,1.21"/><path class="cls-1" d="M41.17,63.65a13,13,0,0,0,6.16,2.9c3.85.69,9-.83,9-4.15,0-7.73-8.32-5.25-8.32-13.9s9.43-10.36,12-4.33V23a61.65,61.65,0,0,0-27.25-6.38,22.91,22.91,0,0,1,4.13,1.06c.48.17,1,.35,1.4.55C44.63,21,48.55,26.33,48.55,32.1c0,.12,0,.23,0,.35a16.3,16.3,0,0,0-2.68-3c-3.69-3.19-10.8-6.59-23.64-4.72h-.11c-.24,0-.46,0-.67,0h-.06c-1.9-.23-2.87-1.41-2.87-3.95,0-.16,0-1.54,0-1.68,0-.4.09-.72.12-.93A55.78,55.78,0,0,0,5,23V52.71c.07,0,18.93-3.8,36.14,10.94m3.79.78h0a11,11,0,0,1-2.84-1.77C34.27,56,27,53.05,20.46,51.81a67.42,67.42,0,0,0,9-10.53v.08c.08,5.74,4.43,7.92,8.64,10,3.39,1.69,6.85,3.43,8.67,7a4.61,4.61,0,0,1-1.79,6m1-9.28c-2.06-2.22-4.79-3.59-7.35-4.87-4.23-2.11-7.89-3.93-8-9A7.89,7.89,0,0,1,31,38.84l0,0c.11-.21.22-.41.31-.62a6.5,6.5,0,0,0,.28-.61c.08-.19.15-.37.22-.56s.13-.39.19-.58a1.55,1.55,0,0,1,0-.15,3.25,3.25,0,0,0,.11-.42c0-.18.08-.36.11-.53s0-.07,0-.11a17.85,17.85,0,0,0,5,2.53c3.34,1.34,7,2.82,8.5,5.9a11,11,0,0,0-1.06,4.78c0,3.52.62,5.42,1.33,6.72m-.9-24.74a13.86,13.86,0,0,1,3.37,4.22,20,20,0,0,1-2.1,7.64c-1.88-2.92-5.55-4.4-8.69-5.65-2.89-1.16-5.4-2.16-5.4-3.83a6.61,6.61,0,0,0-1.18-3.61L31,29.07a3,3,0,0,0-.21-.33,3.12,3.12,0,0,0-.25-.35,1.24,1.24,0,0,0-.17-.23,3.88,3.88,0,0,0-.26-.31l-.05-.06a4.89,4.89,0,0,0-.4-.39,7.88,7.88,0,0,0-.83-.7h0l-.46-.31-.47-.27-.48-.25-.33-.15-.5-.19c9.75-.6,15.38,2.21,18.47,4.88M20,26.26a3.67,3.67,0,0,1,.74-.16l.5,0h.83c1.46,0,5.24.29,7.34,3.12l.21.29a6.74,6.74,0,0,1,.46.81,5.59,5.59,0,0,1,.37.91,4.26,4.26,0,0,1,.16.54c.05.19.09.38.13.58s0,.3.08.46,0,.1,0,.15A11.71,11.71,0,0,1,31,34.3a6.52,6.52,0,0,1-.43,2.18l-.05.14a4,4,0,0,1-.2.5c-.07.17-.15.34-.23.52l-.09.12c-1.14,1.41-1.65,2.16-3.44,2.46A18.14,18.14,0,0,1,23,39.73a16.62,16.62,0,0,0-4.11-.06c-1.11.13-2.59,0-2.59-1.42a1.3,1.3,0,0,1,1.15-1.33c1.29,0,4.89,1.4,4.89-.47,0-1.51-3.31-.36-4.84-.36s-1.61-.68-1.61-1.89c0-1.81,1.28-1.83,1.28-2.58,0-.57-.08-.81-.23-.81-.36,0-.7,1.64-1.15,1.64-.69,0-1.3-1.36-1.3-2.28,0-.75,3.75-3.09,5.6-3.91"/><path class="cls-1" d="M94.22,32.91h4.5c2.21,0,3.14-.91,3.14-3.14v-.6c0-2.18-.93-3.15-3.14-3.15H97.18c-3.12,0-4.65-1.58-4.65-4.7v-.26c0-3.15,1.51-4.79,4.65-4.79H103v4.11h-1.35l-.26-2.55H97.36c-2.26,0-3.14.94-3.14,3.15v.36c0,2.21.91,3.12,3.14,3.12h1.56c3.1,0,4.63,1.64,4.63,4.76v.5c0,3.27-1.56,4.75-4.89,4.75h-6v-4.1H94Z"/><path class="cls-1" d="M109.92,22.18V33.07l1.67.23v1.17h-4.92V33.3l1.64-.23v-11l-1.64-.24V20.69h13.19c2.55,0,3.85,1.3,3.85,3.85v8.53l1.63.23v1.17h-3.25V24.62c0-1.72-.7-2.44-2.44-2.44h-2.83V33.07l1.66.23v1.17H115.2V22.18Z"/><path class="cls-1" d="M131.07,20.69V33.07l1.66.23v1.17h-4.91V33.3l1.64-.23v-11l-1.64-.24V20.69ZM133.12,16l-3.48,2.5-.71-.91,3.2-2.81Z"/><path class="cls-1" d="M136.11,24.52c0-2.53,1.33-3.83,3.85-3.83h4.94v3.83h-1.19l-.26-2.34h-3.26c-1.76,0-2.47.7-2.47,2.41v6c0,1.72.71,2.42,2.47,2.42h4.71v1.48H140c-2.52,0-3.85-1.3-3.85-3.82Z"/><path class="cls-1" d="M161,34.47h-3.25V24.62c0-1.72-.7-2.44-2.45-2.44h-3.9V33.07l1.67.23v1.17h-4.92V33.3l1.64-.23V17.16l-1.64-.24V15.75h3.25v4.94h4.11c2.52,0,3.85,1.3,3.85,3.85v8.53l1.64.23Z"/><path class="cls-1" d="M174.29,30.76c0,2.54-1.3,3.84-3.85,3.84H168.1c-2.52,0-3.85-1.3-3.85-3.84V24.41c0-2.52,1.33-3.85,3.85-3.85h2.34c2.55,0,3.85,1.33,3.85,3.85Zm-1.61-6.24c0-1.77-.71-2.47-2.45-2.47h-1.9c-1.77,0-2.47.7-2.47,2.44v6.16c0,1.77.7,2.47,2.47,2.47h1.9c1.74,0,2.45-.7,2.45-2.44Z"/><path class="cls-1" d="M177,20.69h2.81L183.08,32h.15l2.86-9.85-1.56-.24V20.69h4.71v1.17l-1.53.24-3.62,12.37h-1.9L178.58,22.1,177,21.86Z"/><path class="cls-1" d="M198.89,24.49l-.24-2.31h-3c-1.71,0-2.42.65-2.42,2.26s.68,2.34,2.42,2.34h1.22c2.53,0,3.83,1.32,3.83,3.79v.13c0,2.47-1.3,3.77-3.83,3.77h-5.2V30.76h1.2l.26,2.23h3.51c1.74,0,2.44-.62,2.44-2.36s-.7-2.42-2.44-2.42h-1.22c-2.52,0-3.8-1.33-3.8-3.72v-.1c0-2.4,1.28-3.7,3.8-3.7h4.73v3.8Z"/><path class="cls-1" d="M203.13,33.3l1.64-.23V17.16l-1.64-.24V15.75h3.25v11h3l2.44-6h2.66v1.17l-1.54.24-2.16,5.35,2.45,5.62,1.53.23v1.17h-2.62l-2.76-6.26h-3v4.86l1.66.23v1.17h-4.91Z"/><path class="cls-1" d="M218.21,20.69h4.4c2.54,0,3.84,1.33,3.84,3.85v8.53l1.67.23v1.17h-7.23c-2.52,0-3.8-1.3-3.8-3.79v-.26c0-2.5,1.28-3.82,3.8-3.82h4v-2c0-1.72-.7-2.44-2.44-2.44h-4.19ZM221.12,28c-1.71,0-2.42.7-2.42,2.44s.6,2.63,2.42,2.63h3.72V28Zm4.16-12-3.48,2.5-.7-.91,3.2-2.81Z"/><path class="cls-1" d="M243.88,24.49l-.24-2.31h-3c-1.72,0-2.42.65-2.42,2.26s.68,2.34,2.42,2.34h1.22c2.52,0,3.82,1.32,3.82,3.79v.13c0,2.47-1.3,3.77-3.82,3.77h-5.2V30.76h1.2l.26,2.23h3.51c1.74,0,2.44-.62,2.44-2.36s-.7-2.42-2.44-2.42h-1.22c-2.53,0-3.8-1.33-3.8-3.72v-.1c0-2.4,1.27-3.7,3.8-3.7h4.73v3.8Z"/><path class="cls-1" d="M248.38,20.75h1.4c.42,0,.57-.16.57-.58V17.81h1.56v2.88h3.2v1.49h-3.2V30.7c0,1.72.7,2.42,2.45,2.42h1.56V34.6h-1.77c-2.55,0-3.85-1.3-3.85-3.82v-8.6h-1.92Z"/><path class="cls-1" d="M267.33,20.69v3.8h-1.19l-.24-2.31h-1.66c-1.77,0-2.47.72-2.47,2.44v8.45l1.66.23v1.17h-4.91V33.3l1.64-.23V24.54c0-2.52,1.32-3.85,3.85-3.85Zm-4.1-2.47-2.42-3.32h1.4l1.61,2H264l1.61-2H267l-2.42,3.32Z"/><path class="cls-1" d="M274.17,34.47c-2.52,0-3.84-1.3-3.84-3.82V24.41c0-2.52,1.32-3.85,3.84-3.85h2.08c2.53,0,3.85,1.33,3.85,3.85v3.72h-8.16v2.44c0,1.72.7,2.42,2.47,2.42h5.25v1.48Zm-2.23-7.72h6.55V24.49c0-1.72-.7-2.44-2.44-2.44h-1.64c-1.77,0-2.47.72-2.47,2.44Z"/><path class="cls-1" d="M289.57,16.92V15.75h3.25V33.07l1.64.23v1.17h-7.39c-2.52,0-3.85-1.3-3.85-3.82V24.54c0-2.52,1.33-3.85,3.85-3.85h4.14V17.16ZM291.21,33V22.18h-3.9c-1.77,0-2.47.72-2.47,2.44v5.95c0,1.72.7,2.42,2.47,2.42Z"/><path class="cls-1" d="M309.77,34.47h-3.25V24.62c0-1.74-.7-2.44-2.41-2.44h-3.93V33.07l1.66.23v1.17h-4.91V33.3l1.64-.23v-11l-1.64-.24V20.69h7.36c2.55,0,3.85,1.3,3.85,3.85v8.53l1.63.23Z"/><path class="cls-1" d="M315.5,20.69V33.07l1.66.23v1.17h-4.91V33.3l1.63-.23v-11l-1.63-.24V20.69ZM317.55,16l-3.48,2.5-.71-.91,3.2-2.81Z"/><path class="cls-1" d="M91.88,67.59V66.42l1.64-.24V50.27L91.88,50V48.87h7.33c2.55,0,3.85,1.32,3.85,3.84v6.12c0,2.52-1.3,3.82-3.85,3.82H95.13v3.53l1.66.24v1.17Zm3.25-17.24V61.17H99c1.74,0,2.45-.71,2.45-2.42v-6c0-1.71-.71-2.44-2.45-2.44Z"/><path class="cls-1" d="M115.13,48.87v3.79h-1.2l-.23-2.31H112c-1.77,0-2.47.73-2.47,2.44v8.45l1.67.24v1.17h-4.92V61.48l1.64-.24V52.71c0-2.52,1.32-3.84,3.85-3.84Z"/><path class="cls-1" d="M117.86,48.87h3.25v9.85c0,1.74.7,2.45,2.44,2.45h3.9V50.27L125.79,50V48.87h4.91V50l-1.64.23v11l1.64.24v1.17h-7.36c-2.55,0-3.85-1.3-3.85-3.85V50.27L117.86,50Zm6.42-6.66a2.45,2.45,0,0,1,0,4.89,2.45,2.45,0,0,1,0-4.89Zm0,3.67a1.22,1.22,0,0,0,1.25-1.23,1.23,1.23,0,0,0-1.25-1.22,1.22,1.22,0,0,0-1.22,1.22A1.2,1.2,0,0,0,124.28,45.88Z"/><path class="cls-1" d="M137.07,50.35V61.24l1.67.24v1.17h-4.92V61.48l1.64-.24v-11L133.82,50V48.87H147c2.55,0,3.85,1.3,3.85,3.84v8.53l1.63.24v1.17h-3.25V52.79c0-1.71-.7-2.44-2.44-2.44H144V61.24l1.67.24v1.17h-3.28V50.35Z"/><path class="cls-1" d="M164.87,63.74c0,2.68-1.43,3.85-4.13,3.85h-4.5V66.11h4.58c1.74,0,2.44-.73,2.44-2.45V61.35h-4.11c-2.55,0-3.85-1.3-3.85-3.82V50.27L153.67,50V48.87h3.25v8.58c0,1.71.7,2.42,2.44,2.42h3.9v-9.6L161.6,50V48.87h4.91V50l-1.64.23Z"/><path class="cls-1" d="M176.55,52.66l-.23-2.31h-3c-1.71,0-2.41.65-2.41,2.26s.67,2.34,2.41,2.34h1.23c2.52,0,3.82,1.33,3.82,3.8v.13c0,2.47-1.3,3.77-3.82,3.77h-5.2V58.93h1.19l.26,2.24h3.51c1.74,0,2.45-.63,2.45-2.37s-.71-2.42-2.45-2.42H173c-2.52,0-3.8-1.33-3.8-3.72v-.1c0-2.39,1.28-3.69,3.8-3.69h4.73v3.79Z"/><path class="cls-1" d="M185.08,43.93V61.24l1.66.24v1.17h-4.91V61.48l1.64-.24V45.33l-1.64-.23V43.93Z"/><path class="cls-1" d="M200,58.93c0,2.55-1.3,3.85-3.85,3.85h-2.34c-2.52,0-3.84-1.3-3.84-3.85V52.58c0-2.52,1.32-3.84,3.84-3.84h2.34c2.55,0,3.85,1.32,3.85,3.84Zm-1.61-6.24c0-1.77-.7-2.47-2.44-2.47h-1.9c-1.77,0-2.47.7-2.47,2.44v6.17c0,1.76.7,2.47,2.47,2.47H196c1.74,0,2.44-.71,2.44-2.45Z"/><path class="cls-1" d="M202.24,48.87h2.81l3.25,11.26h.16l2.86-9.86L209.76,50V48.87h4.71V50l-1.54.23-3.61,12.38h-1.9L203.8,50.27,202.24,50Z"/><path class="cls-1" d="M218.18,48.87h4.4c2.55,0,3.85,1.32,3.85,3.84v8.53l1.66.24v1.17h-7.23c-2.52,0-3.79-1.3-3.79-3.8v-.26c0-2.5,1.27-3.82,3.79-3.82h4v-2c0-1.71-.71-2.44-2.45-2.44h-4.19Zm2.92,7.3c-1.72,0-2.42.7-2.42,2.45s.6,2.62,2.42,2.62h3.72V56.17Zm4.16-12-3.49,2.49-.7-.91,3.2-2.81Z"/><path class="cls-1" d="M243.85,52.66l-.23-2.31h-3c-1.72,0-2.42.65-2.42,2.26s.67,2.34,2.42,2.34h1.22c2.52,0,3.82,1.33,3.82,3.8v.13c0,2.47-1.3,3.77-3.82,3.77h-5.2V58.93h1.19l.26,2.24h3.51c1.75,0,2.45-.63,2.45-2.37s-.7-2.42-2.45-2.42h-1.22c-2.52,0-3.8-1.33-3.8-3.72v-.1c0-2.39,1.28-3.69,3.8-3.69h4.73v3.79Zm-3.43-6.26L238,43.07h1.4l1.62,2h.15l1.62-2h1.4l-2.42,3.33Z"/><path class="cls-1" d="M248.61,61.48l1.64-.24V45.33l-1.64-.23V43.93h3.25v11h3l2.45-6H260V50l-1.54.23-2.15,5.36,2.44,5.61,1.53.24v1.17h-2.62l-2.76-6.27h-3v4.86l1.67.24v1.17h-4.92Z"/><path class="cls-1" d="M273.26,58.93c0,2.55-1.3,3.85-3.85,3.85h-2.34c-2.52,0-3.84-1.3-3.84-3.85V52.58c0-2.52,1.32-3.84,3.84-3.84h2.34c2.55,0,3.85,1.32,3.85,3.84Zm-1.61-6.24c0-1.77-.7-2.47-2.44-2.47h-1.9c-1.77,0-2.47.7-2.47,2.44v6.17c0,1.76.7,2.47,2.47,2.47h1.9c1.74,0,2.44-.71,2.44-2.45Z"/><path class="cls-1" d="M279.37,43.93V61.24l1.67.24v1.17h-4.92V61.48l1.64-.24V45.33l-1.64-.23V43.93Z"/><path class="cls-1" d="M284.76,48.87h4.39c2.55,0,3.85,1.32,3.85,3.84v8.53l1.66.24v1.17h-7.22c-2.53,0-3.8-1.3-3.8-3.8v-.26c0-2.5,1.27-3.82,3.8-3.82h3.95v-2c0-1.71-.7-2.44-2.45-2.44h-4.18Zm2.91,7.3c-1.72,0-2.42.7-2.42,2.45s.6,2.62,2.42,2.62h3.72V56.17Z"/><path class="cls-1" d="M93.13,77h4.39c2.55,0,3.85,1.32,3.85,3.85v8.53l1.66.23v1.17H95.8c-2.52,0-3.79-1.3-3.79-3.8v-.26c0-2.49,1.27-3.82,3.79-3.82h4V81c0-1.72-.71-2.45-2.45-2.45H93.13ZM96,84.35c-1.72,0-2.42.7-2.42,2.44s.6,2.63,2.42,2.63h3.72V84.35Z"/><path class="cls-1" d="M119.86,89.88h-4.14c-2.52,0-3.84-1.32-3.84-3.84V80.89c0-2.53,1.32-3.85,3.84-3.85h5.75V91.91c0,2.52-1.33,3.85-3.85,3.85h-4.7V94.28h4.49c1.75,0,2.45-.73,2.45-2.45ZM116,78.52c-1.77,0-2.47.73-2.47,2.45v5c0,1.71.7,2.44,2.47,2.44h3.9V78.52Z"/><path class="cls-1" d="M135.41,91.91c0,2.68-1.43,3.85-4.14,3.85h-4.49V94.28h4.57c1.74,0,2.45-.73,2.45-2.45V89.52h-4.11c-2.55,0-3.85-1.3-3.85-3.82V78.44l-1.64-.23V77h3.25v8.58c0,1.72.7,2.42,2.45,2.42h3.9v-9.6l-1.67-.23V77h4.92v1.17l-1.64.23Z"/><path class="cls-1" d="M142.9,78.52v10.9l1.66.23v1.17h-4.91V89.65l1.64-.23v-11l-1.64-.23V77h13.18c2.55,0,3.85,1.3,3.85,3.85v8.53l1.64.23v1.17h-3.25V81c0-1.72-.7-2.45-2.45-2.45h-2.83v10.9l1.66.23v1.17h-3.27V78.52Z"/><path class="cls-1" d="M173.64,90.82h-3.25V81c0-1.75-.71-2.45-2.42-2.45H164v10.9l1.67.23v1.17h-4.92V89.65l1.64-.23v-11l-1.64-.23V77h7.36c2.55,0,3.85,1.3,3.85,3.85v8.53l1.64.23Z"/><path class="cls-1" d="M177.36,77h4.39c2.55,0,3.85,1.32,3.85,3.85v8.53l1.66.23v1.17H180c-2.53,0-3.8-1.3-3.8-3.8v-.26c0-2.49,1.27-3.82,3.8-3.82h4V81c0-1.72-.7-2.45-2.45-2.45h-4.18Zm2.91,7.31c-1.72,0-2.42.7-2.42,2.44s.6,2.63,2.42,2.63H184V84.35Zm4.16-12L181,74.85l-.71-.91,3.2-2.8Z"/><path class="cls-1" d="M192.26,89.18v.16h5.93l.23-2.24h1.22v3.72h-9.38V89.34l7.35-10.66v-.16H192l-.23,2.26h-1.22V77h9.12v1.48Z"/><path class="cls-1" d="M206,77V89.42l1.67.23v1.17h-4.92V89.65l1.64-.23v-11l-1.64-.23V77Zm-.83-5a1,1,0,0,1,1,1,1,1,0,0,1-1,.93.92.92,0,0,1-.93-.93A1,1,0,0,1,205.18,72.05Z"/><path class="cls-1" d="M209.37,77h3.25v9.85c0,1.75.7,2.45,2.44,2.45H219V78.44l-1.66-.23V77h4.91v1.17l-1.63.23v11l1.63.23v1.17h-7.35c-2.55,0-3.85-1.3-3.85-3.85V78.44l-1.64-.23Z"/><path class="cls-1" d="M228.59,78.52v10.9l1.66.23v1.17h-4.91V89.65l1.63-.23v-11l-1.63-.23V77h13.18c2.55,0,3.85,1.3,3.85,3.85v8.53l1.64.23v1.17h-3.25V81c0-1.72-.71-2.45-2.45-2.45h-2.83v10.9l1.66.23v1.17h-3.27V78.52Z"/></g></g></svg>
