<?xml version="1.0" encoding="UTF-8" standalone="no"?>
<!-- Created with Inkscape (http://www.inkscape.org/) -->

<svg
   width="210mm"
   height="297mm"
   viewBox="0 0 210 297"
   version="1.1"
   id="svg5"
   xml:space="preserve"
   inkscape:version="1.2.2 (b0a8486541, 2022-12-01)"
   sodipodi:docname="drawing.svg"
   xmlns:inkscape="http://www.inkscape.org/namespaces/inkscape"
   xmlns:sodipodi="http://sodipodi.sourceforge.net/DTD/sodipodi-0.dtd"
   xmlns="http://www.w3.org/2000/svg"
   xmlns:svg="http://www.w3.org/2000/svg"><sodipodi:namedview
     id="namedview7"
     pagecolor="#ffffff"
     bordercolor="#000000"
     borderopacity="0.25"
     inkscape:showpageshadow="2"
     inkscape:pageopacity="0.0"
     inkscape:pagecheckerboard="0"
     inkscape:deskcolor="#d1d1d1"
     inkscape:document-units="mm"
     showgrid="false"
     inkscape:zoom="0.56"
     inkscape:cx="73.214286"
     inkscape:cy="446.42857"
     inkscape:window-width="1920"
     inkscape:window-height="1055"
     inkscape:window-x="0"
     inkscape:window-y="25"
     inkscape:window-maximized="1"
     inkscape:current-layer="layer1" /><defs
     id="defs2"><style
       id="style4287">.cls-1{fill:#00406C;}</style></defs><g
     inkscape:label="Layer 1"
     inkscape:groupmode="layer"
     id="layer1"><rect
       style="fill:#406280;fill-opacity:1;stroke-width:0.569165"
       id="rect234"
       width="210.55615"
       height="231.39577"
       x="-0.27807617"
       y="65.604233"
       ry="0" /><g
       id="Vrstva_1-2"
       data-name="Vrstva 1"
       transform="matrix(0.13509723,0,0,0.13509723,165.92102,10.566777)"><g
         id="g5634"
         transform="translate(8.1115616,4.5168511)"><path
           class="cls-1"
           d="m -195.18123,-0.19918091 a 98.25732,98.25732 0 0 1 18.97884,2.14826771 l 2.45939,0.5333631 v -7.8226576 a 7.0966913,7.0966913 0 0 0 -6.85964,-6.5485123 h -2.00011 v 3.4816749 c -2.04456,-0.3111284 -4.14838,-0.5778099 -6.48925,-0.7555976 v -3.4224123 l -1.48157,-0.429654 a 16.149047,16.149047 0 0 0 -9.18569,0 l -1.48157,0.429654 v 3.4224123 c -2.34087,0.1777877 -4.44469,0.4444692 -6.48925,0.7555976 v -3.4964909 h -1.97048 a 7.1707695,7.1707695 0 0 0 -6.84482,6.1929373 v 8.1782329 l 2.44458,-0.533363 a 98.183242,98.183242 0 0 1 18.91957,-2.13345211 m -19.26033,-5.14102679 v 0 a 5.1113956,5.1113956 0 0 1 4.81508,-4.5335857 v 3.822435 a 95.353455,95.353455 0 0 1 10.26724,-1.2000668 h 0.26668 V -11.07386 a 13.89707,13.89707 0 0 1 8.03008,0 v 3.8076191 h 0.28149 a 95.516427,95.516427 0 0 1 10.25243,1.2000668 v -3.8076193 a 5.1113956,5.1113956 0 0 1 4.8299,4.5335857 v 0 5.31881447 a 101.20563,101.20563 0 0 0 -19.45294,-2.20753027 101.05748,101.05748 0 0 0 -19.36404,2.20753027 z"
           id="path4291"
           style="stroke-width:1.48156" /><path
           class="cls-1"
           d="M -148.00823,15.594291 C -161.04599,8.0975772 -177.77285,3.87512 -195.07752,3.7417792 h -0.14816 c -17.30466,0.162972 -34.07597,4.4446918 -46.99521,11.8525118 h -0.10371 l -1.02227,0.548179 v 88.479 a 12.193271,12.193271 0 0 0 4.19282,9.11162 l 39.54294,34.69823 a 6.8448254,6.8448254 0 0 0 8.88939,0 l 39.58739,-34.69823 a 12.148824,12.148824 0 0 0 4.19282,-9.11162 V 16.157285 Z m -0.96302,89.027179 a 10.148713,10.148713 0 0 1 -3.5113,7.63005 l -39.52813,34.68342 a 4.8447141,4.8447141 0 0 1 -6.28183,0 l -39.52813,-34.68342 a 10.148713,10.148713 0 0 1 -3.51131,-7.61523 v -3.09647 a 11.852512,11.852512 0 0 0 2.20753,2.51866 l 39.4985,34.68341 0.4741,0.38521 4.00022,3.5113 4.00022,-3.5113 0.13334,-0.11853 c 0.11853,0 0.22224,-0.17779 0.34076,-0.26668 l 39.52813,-34.68341 a 12.815528,12.815528 0 0 0 2.1779,-2.48903 z m 0,-9.704246 a 9.9264784,9.9264784 0 0 1 -1.6149,5.481786 9.5560874,9.5560874 0 0 1 -1.8964,2.20753 l -1.97049,1.61491 -37.55764,32.99443 a 2.3112397,2.3112397 0 0 1 -0.29632,0.23705 v 0 a 4.8150828,4.8150828 0 0 1 -5.57068,0 v 0 l -0.34076,-0.2815 -37.72061,-32.94998 -1.92604,-1.68899 a 10.059819,10.059819 0 0 1 -1.91122,-2.22234 9.8968471,9.8968471 0 0 1 -1.6149,-5.422527 v -77.456163 0 c 12.32661,-7.096691 28.4164,-11.4524892 46.06182,-11.6154613 h 0.13334 c 17.63062,0.1629721 33.7204,4.4446923 46.04701,11.6154613 v 0 z"
           id="path4293"
           style="stroke-width:1.48156" /><path
           class="cls-1"
           d="m -160.79413,60.144919 a 41.661578,41.661578 0 0 1 1.21488,-8.385652 c 0,0 -8.31157,-3.214994 -8.31157,6.415172 0,9.052355 11.95622,8.35602 13.43778,18.519549 V 65.093342 c 0,0 -6.38554,-1.333407 -6.38554,-4.948423"
           id="path4295"
           style="stroke-width:1.48156" /><path
           class="cls-1"
           d="m -196.11462,98.487793 c 0,-11.096914 -10.37094,-29.231256 -32.6833,-29.231256 v 0 c 0,0.711151 -0.59262,2.814971 -1.34822,2.814971 h -4.31135 v 16.474991 l 1.36304,-1.377854 0.68152,-0.696335 13.66002,-13.852623 a 28.431212,28.431212 0 0 1 8.00044,3.881697 l -19.08254,15.778656 1.48156,1.763062 a 1.2593293,1.2593293 0 0 1 -0.17778,1.748245 l -2.29643,1.955664 -0.50373,0.44447 -1.02228,0.874122 10.91913,9.570907 2.81497,-2.31124 a 1.4815639,1.4815639 0 0 1 1.94085,0 l 2.96312,2.96313 2.96313,-4.11875 c 0,0 -5.36326,-14.948983 7.23003,-21.690099 a 27.364486,27.364486 0 0 1 5.43734,14.726745 8.5930708,8.5930708 0 0 0 -5.4077,8.652334 l -10.05982,8.63752 19.77888,17.49727 v -6.47443 a 1.3334075,1.3334075 0 0 1 1.34822,-1.30378 h 3.14091 l 4.8299,-11.28952 c 0,0 -11.65991,-4.32617 -11.65991,-15.423081"
           id="path4297"
           style="stroke-width:1.48156" /><path
           class="cls-1"
           d="m -176.55797,112.25152 -7.40782,10.8895 27.8534,-24.445808 a 5.1262112,5.1262112 0 0 0 1.65935,-3.807619 V 80.723842 c -1.8964,11.496936 -22.22345,18.297314 -22.22345,31.542498"
           id="path4299"
           style="stroke-width:1.48156" /><path
           class="cls-1"
           d="m -213.3452,30.661796 c 0.9482,0 3.86688,-0.740782 3.86688,-1.333407 0,-0.592626 -0.78523,-3.052022 -3.94096,-0.948201 a 0.81486017,0.81486017 0 0 0 -0.34076,0.488916 c -0.11853,0.57781 -0.29632,1.792692 0.41484,1.792692"
           id="path4301"
           style="stroke-width:1.48156" /><path
           class="cls-1"
           d="m -182.35089,80.620132 a 19.260331,19.260331 0 0 0 9.12644,4.296536 c 5.70402,1.022279 13.33408,-1.229698 13.33408,-6.148491 0,-11.452489 -12.32662,-7.77821 -12.32662,-20.593738 0,-12.815528 13.97115,-15.349003 17.77877,-6.415172 V 20.394558 a 91.338417,91.338417 0 0 0 -40.37262,-9.452378 33.94263,33.94263 0 0 1 6.11886,1.570458 c 0.71115,0.251866 1.48156,0.518547 2.07419,0.81486 9.39312,4.103932 15.20085,12.000668 15.20085,20.549292 0,0.177788 0,0.34076 0,0.518547 a 24.149492,24.149492 0 0 0 -3.97059,-4.444691 c -5.46698,-4.726189 -16.0009,-9.763507 -35.02418,-6.992982 h -0.16297 c -0.35558,0 -0.68152,0 -0.99265,0 h -0.0889 c -2.81497,-0.34076 -4.25209,-2.089005 -4.25209,-5.852178 0,-0.23705 0,-2.281608 0,-2.489027 0,-0.592626 0.13334,-1.066726 0.17779,-1.377855 a 82.641636,82.641636 0 0 0 -20.20853,7.155954 v 44.017265 c 0.1037,0 28.046,-5.629943 53.54372,16.208309 m 5.61513,1.15562 v 0 a 16.297203,16.297203 0 0 1 -4.20765,-2.622368 c -11.58583,-9.867216 -22.3568,-14.237829 -32.04623,-16.074969 a 99.887041,99.887041 0 0 0 13.33408,-15.600868 v 0.118525 c 0.11852,8.504177 6.56333,11.733986 12.80071,14.815639 5.0225,2.503844 10.14872,5.081765 12.84516,10.370948 a 6.8300098,6.8300098 0 0 1 -2.652,8.889384 m 1.48157,-13.748914 c -3.05202,-3.289072 -7.0967,-5.318814 -10.8895,-7.215216 -6.26701,-3.1261 -11.68954,-5.822546 -11.85251,-13.334076 a 11.689539,11.689539 0 0 1 0.54818,-3.511306 v 0 c 0.16297,-0.311128 0.32594,-0.607441 0.45928,-0.91857 a 9.6301656,9.6301656 0 0 0 0.41484,-0.903754 c 0.11853,-0.281497 0.22224,-0.548178 0.32594,-0.829676 0.10371,-0.281497 0.19261,-0.577809 0.2815,-0.859307 a 2.2964241,2.2964241 0 0 1 0,-0.222234 4.8150828,4.8150828 0 0 0 0.16297,-0.622257 c 0,-0.266682 0.11853,-0.533363 0.16298,-0.785229 0.0444,-0.251866 0,-0.103709 0,-0.162972 a 26.445916,26.445916 0 0 0 7.40782,3.748357 c 4.94842,1.985295 10.37095,4.17801 12.59329,8.741227 a 16.297203,16.297203 0 0 0 -1.57046,7.081876 c 0,5.215105 0.91857,8.030076 1.97048,9.956109 m -1.3334,-36.653891 a 20.534476,20.534476 0 0 1 4.99287,6.252199 29.631279,29.631279 0 0 1 -3.11129,11.319149 c -2.78534,-4.326167 -8.22268,-6.518882 -12.87479,-8.370836 -4.28172,-1.718615 -8.00045,-3.200179 -8.00045,-5.67439 a 9.7931376,9.7931376 0 0 0 -1.74824,-5.348446 l -0.13334,-0.222235 a 4.4446918,4.4446918 0 0 0 -0.31113,-0.488916 4.6224795,4.6224795 0 0 0 -0.37039,-0.518547 1.8371393,1.8371393 0 0 0 -0.25187,-0.34076 5.7484681,5.7484681 0 0 0 -0.3852,-0.459285 l -0.0741,-0.08889 a 7.2448477,7.2448477 0 0 0 -0.59263,-0.57781 11.674724,11.674724 0 0 0 -1.2297,-1.037094 v 0 l -0.68152,-0.459285 -0.69633,-0.400022 -0.71115,-0.370391 -0.48892,-0.222235 -0.74078,-0.281497 c 14.44525,-0.888938 22.78645,3.274256 27.36449,7.230032 m -37.128,-6.14849 a 5.4373397,5.4373397 0 0 1 1.09636,-0.237051 h 0.74078 1.2297 c 2.16309,0 7.7634,0.429654 10.87468,4.62248 l 0.31113,0.429653 a 9.9857409,9.9857409 0 0 1 0.68152,1.200067 8.2819424,8.2819424 0 0 1 0.54818,1.348223 6.3114624,6.3114624 0 0 1 0.23705,0.800045 c 0.0741,0.281497 0.13334,0.562994 0.1926,0.859307 0.0593,0.296313 0,0.444469 0.11853,0.681519 0.11852,0.237051 0,0.148157 0,0.222235 a 17.349114,17.349114 0 0 1 0.26668,1.985296 9.6597969,9.6597969 0 0 1 -0.63707,3.229809 l -0.0741,0.207419 a 5.9262558,5.9262558 0 0 1 -0.29632,0.740782 c -0.10371,0.251866 -0.22223,0.503732 -0.34076,0.770413 l -0.13334,0.177788 c -1.68898,2.089005 -2.44458,3.200178 -5.09658,3.644647 a 26.87557,26.87557 0 0 1 -5.27436,-0.725966 24.623593,24.623593 0 0 0 -6.08923,-0.08889 c -1.64454,0.192603 -3.83725,0 -3.83725,-2.103821 a 1.9260331,1.9260331 0 0 1 1.7038,-1.97048 c 1.91121,0 7.24484,2.07419 7.24484,-0.696335 0,-2.237161 -4.90397,-0.533363 -7.17077,-0.533363 -2.26679,0 -2.38531,-1.007463 -2.38531,-2.800156 0,-2.68163 1.8964,-2.711262 1.8964,-3.822435 0,-0.844491 -0.11853,-1.200066 -0.34076,-1.200066 -0.53336,0 -1.0371,2.429764 -1.7038,2.429764 -1.02228,0 -1.92603,-2.014927 -1.92603,-3.377965 0,-1.111173 5.55586,-4.578033 8.29676,-5.792915"
           id="path4303"
           style="stroke-width:1.48156" /><path
           class="cls-1"
           d="m -103.75392,35.076857 h 6.667037 c 3.274256,0 4.65211,-1.348223 4.65211,-4.652111 v -0.888938 c 0,-3.22981 -1.377854,-4.666927 -4.65211,-4.666927 h -2.281609 c -4.622478,0 -6.889268,-2.340871 -6.889268,-6.96335 v -0.385207 c 0,-4.666926 2.23716,-7.096691 6.889268,-7.096691 h 8.622702 v 6.089228 h -2.000111 l -0.385207,-3.777988 h -5.970702 c -3.34834,0 -4.65211,1.39267 -4.65211,4.666926 v 0.533363 c 0,3.274256 1.34822,4.62248 4.65211,4.62248 h 2.311239 c 4.592849,0 6.859641,2.429764 6.859641,7.052244 v 0.740782 c 0,4.844714 -2.311239,7.037429 -7.244847,7.037429 h -8.889383 v -6.074413 h 1.98529 z"
           id="path4305"
           style="stroke-width:1.48156" /><path
           class="cls-1"
           d="m -80.493367,19.179676 v 16.134231 l 2.474212,0.34076 v 1.73343 h -7.289295 v -1.73343 l 2.429765,-0.34076 V 19.016704 l -2.429765,-0.355576 v -1.688983 h 19.541828 c 3.777988,0 5.704021,1.926034 5.704021,5.704022 v 12.63774 l 2.41495,0.34076 v 1.73343 h -4.815083 V 22.794692 c 0,-2.54829 -1.037095,-3.615016 -3.615016,-3.615016 h -4.192826 v 16.134231 l 2.459396,0.34076 v 1.73343 h -4.85953 V 19.179676 Z"
           id="path4307"
           style="stroke-width:1.48156" /><path
           class="cls-1"
           d="m -49.15829,16.972145 v 18.341762 l 2.459396,0.34076 v 1.73343 h -7.274479 v -1.73343 l 2.429765,-0.34076 V 19.016704 l -2.429765,-0.355576 v -1.688983 z m 3.037206,-6.948534 -5.155842,3.703909 -1.051911,-1.348223 4.741005,-4.1631947 z"
           id="path4309"
           style="stroke-width:1.48156" /><path
           class="cls-1"
           d="m -41.691208,22.646535 c 0,-3.748356 1.97048,-5.67439 5.704021,-5.67439 h 7.318925 v 5.67439 h -1.763061 l -0.385206,-3.466859 h -4.829898 c -2.607553,0 -3.659463,1.037094 -3.659463,3.570569 v 8.889383 c 0,2.54829 1.05191,3.585385 3.659463,3.585385 h 6.978165 v 2.192715 h -7.259663 c -3.733541,0 -5.704021,-1.926033 -5.704021,-5.659574 z"
           id="path4311"
           style="stroke-width:1.48156" /><path
           class="cls-1"
           d="m -4.8150814,37.388097 h -4.815083 V 22.794692 c 0,-2.54829 -1.0370946,-3.615016 -3.6298316,-3.615016 h -5.7781 v 16.134231 l 2.474212,0.34076 v 1.73343 h -7.289295 v -1.73343 l 2.429765,-0.34076 V 11.742225 l -2.429765,-0.355576 V 9.6532193 h 4.815083 v 7.3189257 h 6.089229 c 3.7335406,0 5.7040206,1.926034 5.7040206,5.704022 v 12.63774 l 2.429765,0.34076 z"
           id="path4313"
           style="stroke-width:1.48156" /><path
           class="cls-1"
           d="m 14.874903,31.891494 c 0,3.763173 -1.926033,5.689206 -5.7040214,5.689206 H 5.7040226 C 1.9704816,37.5807 1.5655399e-6,35.654667 1.5655399e-6,31.891494 V 22.483563 C 1.5655399e-6,18.750022 1.9704816,16.779542 5.7040226,16.779542 h 3.466859 c 3.7779884,0 5.7040214,1.97048 5.7040214,5.704021 z m -2.385317,-9.244959 c 0,-2.622368 -1.051911,-3.659463 -3.6298324,-3.659463 h -2.814972 c -2.622368,0 -3.659463,1.037095 -3.659463,3.615016 v 9.126434 c 0,2.622368 1.037095,3.659463 3.659463,3.659463 h 2.814972 c 2.5779214,0 3.6298324,-1.037095 3.6298324,-3.615016 z"
           id="path4315"
           style="stroke-width:1.48156" /><path
           class="cls-1"
           d="m 18.889942,16.972145 h 4.163194 l 4.844714,16.756489 h 0.222235 l 4.237273,-14.593405 -2.31124,-0.355576 v -1.807508 h 6.978166 v 1.73343 L 34.757492,19.061151 29.39423,37.388097 H 26.579259 L 21.230813,19.061151 18.889942,18.705575 Z"
           id="path4317"
           style="stroke-width:1.48156" /><path
           class="cls-1"
           d="m 51.321376,22.602088 -0.355575,-3.422412 h -4.444692 c -2.533474,0 -3.585385,0.963016 -3.585385,3.348334 0,2.385318 1.007464,3.46686 3.585385,3.46686 h 1.807508 c 3.748357,0 5.67439,1.955664 5.67439,5.615127 V 31.8026 c 0,3.659463 -1.926033,5.585497 -5.67439,5.585497 h -7.704132 v -5.496603 h 1.777876 l 0.385207,3.303888 h 5.200289 c 2.577922,0 3.615016,-0.91857 3.615016,-3.496491 0,-2.577921 -1.037094,-3.585385 -3.615016,-3.585385 h -1.807508 c -3.733541,0 -5.629942,-1.97048 -5.629942,-5.511418 v -0.148156 c 0,-3.555753 1.896401,-5.481787 5.629942,-5.481787 h 7.007798 v 5.629943 z"
           id="path4319"
           style="stroke-width:1.48156" /><path
           class="cls-1"
           d="m 57.603207,35.654667 2.429765,-0.34076 V 11.742225 L 57.603207,11.386649 V 9.6532193 H 62.41829 V 25.950423 h 4.444692 l 3.615016,-8.889384 h 3.94096 v 1.73343 l -2.281608,0.355575 -3.200178,7.926368 3.629831,8.326389 2.266793,0.34076 V 37.47699 H 70.952099 L 66.862982,28.2024 H 62.41829 v 7.200401 l 2.459396,0.34076 v 1.733429 h -7.274479 z"
           id="path4321"
           style="stroke-width:1.48156" /><path
           class="cls-1"
           d="m 79.945196,16.972145 h 6.51888 c 3.76317,0 5.6892,1.970481 5.6892,5.704022 v 12.63774 l 2.47421,0.34076 v 1.73343 h -10.7117 c -3.73354,0 -5.62995,-1.926034 -5.62995,-5.615128 v -0.385206 c 0,-3.70391 1.89641,-5.659575 5.62995,-5.659575 h 5.92625 V 22.76506 c 0,-2.54829 -1.03709,-3.615016 -3.61501,-3.615016 h -6.20776 z m 4.31135,10.830233 c -2.53348,0 -3.58539,1.037095 -3.58539,3.615016 0,2.577921 0.88894,3.896513 3.58539,3.896513 h 5.51141 v -7.511529 z m 6.1633,-17.778767 -5.15584,3.703909 -1.03709,-1.348223 4.741,-4.1631947 z"
           id="path4323"
           style="stroke-width:1.48156" /><path
           class="cls-1"
           d="m 117.97694,22.602088 -0.35558,-3.422412 h -4.44469 c -2.54829,0 -3.58538,0.963016 -3.58538,3.348334 0,2.385318 1.00746,3.46686 3.58538,3.46686 h 1.80751 c 3.73354,0 5.65957,1.955664 5.65957,5.615127 V 31.8026 c 0,3.659463 -1.92603,5.585497 -5.65957,5.585497 h -7.70413 v -5.496603 h 1.77788 l 0.3852,3.303888 h 5.20029 c 2.57792,0 3.61502,-0.91857 3.61502,-3.496491 0,-2.577921 -1.0371,-3.585385 -3.61502,-3.585385 h -1.8075 c -3.74836,0 -5.62995,-1.97048 -5.62995,-5.511418 v -0.148156 c 0,-3.555753 1.88159,-5.481787 5.62995,-5.481787 h 7.00779 v 5.629943 z"
           id="path4325"
           style="stroke-width:1.48156" /><path
           class="cls-1"
           d="m 124.64398,17.061039 h 2.07419 c 0.62225,0 0.84449,-0.23705 0.84449,-0.859307 v -3.496491 h 2.31124 v 4.266904 h 4.741 v 2.207531 h -4.741 V 31.8026 c 0,2.54829 1.03709,3.585385 3.62983,3.585385 h 2.31124 V 37.5807 h -2.62237 c -3.77799,0 -5.70402,-1.926033 -5.70402,-5.659574 v -12.74145 h -2.8446 z"
           id="path4327"
           style="stroke-width:1.48156" /><path
           class="cls-1"
           d="m 152.71961,16.972145 v 5.629943 h -1.76306 l -0.35557,-3.422412 h -2.4594 c -2.62237,0 -3.65946,1.066726 -3.65946,3.615016 v 12.519215 l 2.45939,0.34076 v 1.73343 h -7.27448 v -1.73343 l 2.42977,-0.34076 v -12.63774 c 0,-3.733541 1.95566,-5.704022 5.70402,-5.704022 z M 146.6452,13.312683 143.05982,8.39389 h 2.07419 l 2.38531,2.963128 h 0.26669 l 2.38531,-2.963128 h 2.05938 l -3.58539,4.918793 z"
           id="path4329"
           style="stroke-width:1.48156" /><path
           class="cls-1"
           d="m 162.85351,37.388097 c -3.73354,0 -5.6892,-1.926034 -5.6892,-5.659575 v -9.244959 c 0,-3.733541 1.95566,-5.704021 5.6892,-5.704021 h 3.08165 c 3.74836,0 5.70402,1.97048 5.70402,5.704021 v 5.511418 h -12.08956 v 3.615016 c 0,2.54829 1.0371,3.585385 3.65947,3.585385 h 7.77821 v 2.192715 z m -3.30389,-11.437674 h 9.70425 v -3.348335 c 0,-2.54829 -1.0371,-3.615016 -3.61502,-3.615016 h -2.42976 c -2.62237,0 -3.65947,1.066726 -3.65947,3.615016 z"
           id="path4331"
           style="stroke-width:1.48156" /><path
           class="cls-1"
           d="M 185.6696,11.386649 V 9.6532193 h 4.81508 V 35.313907 l 2.42976,0.34076 v 1.73343 h -10.94875 c -3.73355,0 -5.70403,-1.926034 -5.70403,-5.659575 v -9.052355 c 0,-3.733541 1.97048,-5.704022 5.70403,-5.704022 h 6.13367 v -5.22992 z m 2.42976,23.823549 V 19.179676 h -5.7781 c -2.62237,0 -3.65946,1.066726 -3.65946,3.615016 v 8.815305 c 0,2.54829 1.03709,3.585385 3.65946,3.585385 z"
           id="path4333"
           style="stroke-width:1.48156" /><path
           class="cls-1"
           d="M 215.59719,37.388097 H 210.7821 V 22.794692 c 0,-2.577922 -1.03709,-3.615016 -3.57057,-3.615016 h -5.82254 v 16.134231 l 2.45939,0.34076 v 1.73343 h -7.27447 v -1.73343 l 2.42976,-0.34076 V 19.016704 l -2.42976,-0.355576 v -1.688983 h 10.90431 c 3.77798,0 5.70402,1.926034 5.70402,5.704022 v 12.63774 l 2.41495,0.34076 z"
           id="path4335"
           style="stroke-width:1.48156" /><path
           class="cls-1"
           d="m 224.08655,16.972145 v 18.341762 l 2.45939,0.34076 v 1.73343 h -7.27447 v -1.73343 l 2.41494,-0.34076 V 19.016704 l -2.41494,-0.355576 v -1.688983 z m 3.0372,-6.948534 -5.15584,3.703909 -1.05191,-1.348223 4.74101,-4.1631947 z"
           id="path4337"
           style="stroke-width:1.48156" /><path
           class="cls-1"
           d="m -107.22078,86.457494 v -1.73343 l 2.42976,-0.355575 V 60.796807 l -2.42976,-0.400023 v -1.674167 h 10.859863 c 3.777988,0 5.704021,1.955665 5.704021,5.689206 v 9.067171 c 0,3.733541 -1.926033,5.659574 -5.704021,5.659574 h -6.044783 v 5.229921 l 2.459398,0.355575 v 1.73343 z m 4.81508,-25.542162 v 16.030522 h 5.733655 c 2.577921,0 3.629831,-1.051911 3.629831,-3.585385 v -8.889384 c 0,-2.533474 -1.05191,-3.615016 -3.629831,-3.615016 z"
           id="path4339"
           style="stroke-width:1.48156" /><path
           class="cls-1"
           d="m -72.774419,58.722617 v 5.615128 h -1.777877 l -0.34076,-3.422413 h -2.518658 c -2.622368,0 -3.659463,1.081542 -3.659463,3.615016 v 12.519215 l 2.474212,0.355576 v 1.733429 h -7.289295 v -1.733429 l 2.429765,-0.355576 v -12.63774 c 0,-3.733541 1.955664,-5.689206 5.704021,-5.689206 z"
           id="path4341"
           style="stroke-width:1.48156" /><path
           class="cls-1"
           d="m -68.72975,58.722617 h 4.815083 v 14.593405 c 0,2.577921 1.037095,3.629832 3.615016,3.629832 h 5.7781 V 60.796807 l -2.459397,-0.400023 v -1.674167 h 7.274479 v 1.674167 l -2.429764,0.34076 v 16.297204 l 2.429764,0.355575 v 1.73343 h -10.90431 c -3.777988,0 -5.704021,-1.926033 -5.704021,-5.704021 V 60.796807 l -2.41495,-0.400023 z m 9.511641,-9.867216 a 3.6298316,3.6298316 0 0 1 0,7.244848 3.6298316,3.6298316 0 0 1 0,-7.244848 z m 0,5.43734 a 1.807508,1.807508 0 0 0 1.851955,-1.822324 1.8223236,1.8223236 0 0 0 -1.851955,-1.807508 1.807508,1.807508 0 0 0 -1.807508,1.807508 1.7778767,1.7778767 0 0 0 1.807508,1.822324 z"
           id="path4343"
           style="stroke-width:1.48156" /><path
           class="cls-1"
           d="m -40.268907,60.915332 v 16.134231 l 2.474212,0.355576 v 1.733429 h -7.289295 v -1.733429 l 2.429765,-0.355576 V 60.75236 l -2.429765,-0.355576 v -1.674167 h 19.527013 c 3.777988,0 5.704021,1.926033 5.704021,5.689206 v 12.63774 l 2.414949,0.355576 v 1.733429 h -4.815083 v -14.60822 c 0,-2.533474 -1.037095,-3.615016 -3.615016,-3.615016 h -4.133563 v 16.134231 l 2.474212,0.355576 v 1.733429 h -4.85953 V 60.915332 Z"
           id="path4345"
           style="stroke-width:1.48156" /><path
           class="cls-1"
           d="m 0.91857057,80.753473 c 0,3.970591 -2.11863597,5.704021 -6.11885897,5.704021 H -11.867326 V 84.26478 h 6.7855626 c 2.577921,0 3.615016,-1.081542 3.615016,-3.629832 v -3.422413 h -6.089228 c -3.7779876,0 -5.7040206,-1.926033 -5.7040206,-5.659574 V 60.796807 l -2.414949,-0.400023 v -1.674167 h 4.815083 v 12.711819 c 0,2.533474 1.0370946,3.585385 3.6150156,3.585385 h 5.778099 V 60.796807 l -2.459396,-0.400023 v -1.674167 h 7.274479 v 1.674167 l -2.42976503,0.34076 z"
           id="path4347"
           style="stroke-width:1.48156" /><path
           class="cls-1"
           d="m 18.223238,64.337745 -0.34076,-3.422413 h -4.444692 c -2.533474,0 -3.5705694,0.963016 -3.5705694,3.348334 0,2.385318 0.9926484,3.46686 3.5705694,3.46686 h 1.822324 c 3.733541,0 5.659574,1.97048 5.659574,5.629943 v 0.192603 c 0,3.659463 -1.926033,5.585496 -5.659574,5.585496 H 7.5559776 V 73.62715 h 1.763061 l 0.385206,3.318704 h 5.2002904 c 2.577921,0 3.629831,-0.933386 3.629831,-3.511307 0,-2.577921 -1.05191,-3.585385 -3.629831,-3.585385 h -1.940849 c -3.7335414,0 -5.6299434,-1.97048 -5.6299434,-5.511417 v -0.148157 c 0,-3.540938 1.896402,-5.466971 5.6299434,-5.466971 h 7.007797 v 5.615128 z"
           id="path4349"
           style="stroke-width:1.48156" /><path
           class="cls-1"
           d="m 30.860978,51.403691 v 25.645872 l 2.459396,0.355576 v 1.733429 H 26.045896 V 77.405139 L 28.47566,77.049563 V 53.477881 l -2.429764,-0.34076 v -1.73343 z"
           id="path4351"
           style="stroke-width:1.48156" /><path
           class="cls-1"
           d="m 52.965912,73.62715 c 0,3.777989 -1.926033,5.704022 -5.704021,5.704022 h -3.466859 c -3.733542,0 -5.689206,-1.926033 -5.689206,-5.704022 v -9.407931 c 0,-3.733541 1.955664,-5.689205 5.689206,-5.689205 h 3.466859 c 3.777988,0 5.704021,1.955664 5.704021,5.689205 z m -2.385318,-9.244959 c 0,-2.622368 -1.037094,-3.659462 -3.615016,-3.659462 h -2.814971 c -2.622368,0 -3.659463,1.037094 -3.659463,3.615016 v 9.141249 c 0,2.607553 1.037095,3.659463 3.659463,3.659463 h 2.88905 c 2.577921,0 3.615016,-1.05191 3.615016,-3.629832 z"
           id="path4353"
           style="stroke-width:1.48156" /><path
           class="cls-1"
           d="m 56.284616,58.722617 h 4.163194 l 4.815083,16.68241 h 0.23705 l 4.237273,-14.60822 -2.31124,-0.400023 v -1.674167 h 6.978166 v 1.674167 l -2.281608,0.34076 -5.348446,18.341762 H 63.959117 L 58.595855,60.796807 56.284616,60.396784 Z"
           id="path4355"
           style="stroke-width:1.48156" /><path
           class="cls-1"
           d="m 79.900746,58.722617 h 6.51888 c 3.77799,0 5.70402,1.955665 5.70402,5.689206 v 12.63774 l 2.4594,0.355576 v 1.733429 h -10.71171 c -3.73354,0 -5.61513,-1.926033 -5.61513,-5.629943 v -0.385206 c 0,-3.70391 1.88159,-5.659575 5.61513,-5.659575 h 5.92626 v -2.963127 c 0,-2.533475 -1.05191,-3.615016 -3.62984,-3.615016 h -6.20775 z m 4.32617,10.815417 c -2.54829,0 -3.58539,1.037095 -3.58539,3.629832 0,2.592737 0.88894,3.881697 3.58539,3.881697 h 5.51141 v -7.511529 z m 6.1633,-17.778767 -5.17066,3.689094 -1.03709,-1.348223 4.741,-4.163195 z"
           id="path4357"
           style="stroke-width:1.48156" /><path
           class="cls-1"
           d="m 117.93249,64.337745 -0.34076,-3.422413 h -4.44469 c -2.54829,0 -3.58538,0.963016 -3.58538,3.348334 0,2.385318 0.99265,3.46686 3.58538,3.46686 h 1.80751 c 3.73354,0 5.65957,1.97048 5.65957,5.629943 v 0.192603 c 0,3.659463 -1.92603,5.585496 -5.65957,5.585496 h -7.70413 V 73.62715 h 1.76306 l 0.38521,3.318704 h 5.20029 c 2.59273,0 3.62982,-0.933386 3.62982,-3.511307 0,-2.577921 -1.03709,-3.585385 -3.62982,-3.585385 h -1.80751 c -3.73354,0 -5.62994,-1.97048 -5.62994,-5.511417 v -0.148157 c 0,-3.540938 1.8964,-5.466971 5.62994,-5.466971 h 7.00779 v 5.615128 z m -5.08176,-9.274591 -3.58538,-4.933608 h 2.07419 l 2.40013,2.963128 h 0.22223 l 2.40014,-2.963128 h 2.07418 l -3.58538,4.933608 z"
           id="path4359"
           style="stroke-width:1.48156" /><path
           class="cls-1"
           d="m 124.98474,77.405139 2.42976,-0.355576 V 53.477881 l -2.42976,-0.34076 v -1.73343 h 4.81508 v 16.297204 h 4.44469 l 3.62983,-8.889384 h 3.98541 v 1.585273 l -2.28161,0.34076 -3.18536,7.941183 3.61501,8.311574 2.2668,0.355575 v 1.73343 h -3.8817 L 134.30377,69.7899 h -4.44469 v 7.200401 l 2.47421,0.355575 v 1.73343 H 125.044 Z"
           id="path4361"
           style="stroke-width:1.48156" /><path
           class="cls-1"
           d="m 161.50529,73.62715 c 0,3.777989 -1.92604,5.704022 -5.70402,5.704022 h -3.46686 c -3.73354,0 -5.68921,-1.926033 -5.68921,-5.704022 v -9.407931 c 0,-3.733541 1.95567,-5.689205 5.68921,-5.689205 h 3.46686 c 3.77798,0 5.70402,1.955664 5.70402,5.689205 z m -2.38532,-9.244959 c 0,-2.622368 -1.0371,-3.659462 -3.61502,-3.659462 h -2.81497 c -2.62237,0 -3.65946,1.037094 -3.65946,3.615016 v 9.141249 c 0,2.607553 1.03709,3.659463 3.65946,3.659463 h 2.81497 c 2.57792,0 3.61502,-1.05191 3.61502,-3.629832 z"
           id="path4363"
           style="stroke-width:1.48156" /><path
           class="cls-1"
           d="m 170.55764,51.403691 v 25.645872 l 2.47421,0.355576 v 1.733429 h -7.28929 v -1.733429 l 2.42977,-0.355576 V 53.477881 l -2.42977,-0.34076 v -1.73343 z"
           id="path4365"
           style="stroke-width:1.48156" /><path
           class="cls-1"
           d="m 178.54327,58.722617 h 6.50407 c 3.77799,0 5.70402,1.955665 5.70402,5.689206 v 12.63774 l 2.4594,0.355576 v 1.733429 h -10.6969 c -3.74835,0 -5.62994,-1.926033 -5.62994,-5.629943 v -0.385206 c 0,-3.70391 1.88159,-5.659575 5.62994,-5.659575 h 5.85218 v -2.963127 c 0,-2.533475 -1.03709,-3.615016 -3.62983,-3.615016 h -6.19294 z m 4.31135,10.815417 c -2.54829,0 -3.58538,1.037095 -3.58538,3.629832 0,2.592737 0.88894,3.881697 3.58538,3.881697 h 5.51142 v -7.511529 z"
           id="path4367"
           style="stroke-width:1.48156" /><path
           class="cls-1"
           d="m -105.36883,100.39901 h 6.50407 c 3.777988,0 5.704021,1.95567 5.704021,5.70402 v 12.63775 l 2.459396,0.34076 v 1.73343 h -10.711707 c -3.73354,0 -5.61513,-1.92604 -5.61513,-5.62995 v -0.38521 c 0,-3.68909 1.88159,-5.65957 5.61513,-5.65957 h 5.926256 v -2.81497 c 0,-2.54829 -1.051911,-3.62983 -3.629832,-3.62983 h -6.252204 z m 4.25209,10.8895 c -2.54829,0 -3.58538,1.03709 -3.58538,3.61501 0,2.57793 0.88894,3.89652 3.58538,3.89652 h 5.511421 v -7.51153 z"
           id="path4369"
           style="stroke-width:1.48156" /><path
           class="cls-1"
           d="m -65.766622,119.48156 h -6.133674 c -3.733542,0 -5.689206,-1.95567 -5.689206,-5.68921 v -7.63005 c 0,-3.74836 1.955664,-5.70402 5.689206,-5.70402 h 8.518992 v 22.03085 c 0,3.73354 -1.97048,5.70402 -5.704021,5.70402 h -6.96335 v -2.19271 h 6.652222 c 2.592737,0 3.629831,-1.08154 3.629831,-3.62983 z m -5.718836,-16.83057 c -2.622369,0 -3.659463,1.08154 -3.659463,3.62983 v 7.40782 c 0,2.53348 1.037094,3.61502 3.659463,3.61502 h 5.778099 v -14.65267 z"
           id="path4371"
           style="stroke-width:1.48156" /><path
           class="cls-1"
           d="m -42.728303,122.48913 c 0,3.97059 -2.118636,5.70402 -6.133674,5.70402 h -6.652222 v -2.19271 h 6.770747 c 2.577921,0 3.629831,-1.08154 3.629831,-3.62983 v -3.42242 h -6.089227 c -3.777988,0 -5.704021,-1.92603 -5.704021,-5.65957 v -10.75616 l -2.429765,-0.34075 v -1.7927 h 4.815083 v 12.71182 c 0,2.54829 1.037094,3.58539 3.629831,3.58539 h 5.778099 V 102.4732 l -2.474211,-0.34076 v -1.73343 h 7.289294 v 1.73343 l -2.429765,0.34076 z"
           id="path4373"
           style="stroke-width:1.48156" /><path
           class="cls-1"
           d="m -31.63139,102.65099 v 16.14905 l 2.459397,0.34076 v 1.73343 h -7.274479 v -1.73343 l 2.429765,-0.34076 v -16.29721 l -2.429765,-0.34076 v -1.76306 h 19.527012 c 3.777989,0 5.704023,1.92604 5.704023,5.70402 v 12.63775 l 2.4297636,0.34076 v 1.73343 h -4.8150816 v -14.4897 c 0,-2.54829 -1.037096,-3.62983 -3.629833,-3.62983 h -4.192826 v 16.14905 l 2.459396,0.34076 v 1.73342 h -4.844714 v -18.26768 z"
           id="path4375"
           style="stroke-width:1.48156" /><path
           class="cls-1"
           d="M 13.911887,120.87423 H 9.0968036 v -14.54896 c 0,-2.59274 -1.05191,-3.62983 -3.585385,-3.62983 h -5.88180803 v 16.14905 l 2.47421103,0.34076 v 1.73342 h -7.289294 v -1.77787 l 2.429765,-0.34076 v -16.29721 l -2.429765,-0.34076 v -1.76306 h 10.90431 c 3.777988,0 5.7040214,1.92604 5.7040214,5.70402 v 12.63775 l 2.429765,0.34076 z"
           id="path4377"
           style="stroke-width:1.48156" /><path
           class="cls-1"
           d="m 19.423305,100.39901 h 6.504065 c 3.777988,0 5.704022,1.95567 5.704022,5.70402 v 12.63775 l 2.459396,0.34076 v 1.73343 H 23.334634 c -3.748357,0 -5.629943,-1.92604 -5.629943,-5.62995 v -0.38521 c 0,-3.68909 1.881586,-5.65957 5.629943,-5.65957 h 5.926255 v -2.81497 c 0,-2.54829 -1.037094,-3.62983 -3.629831,-3.62983 H 19.43812 Z m 4.311351,10.83024 c -2.54829,0 -3.585385,1.03709 -3.585385,3.61501 0,2.57792 0.888938,3.89652 3.585385,3.89652 h 5.526233 v -7.45227 z m 6.163306,-17.778774 -5.081765,3.763172 -1.05191,-1.348223 4.741005,-4.148379 z"
           id="path4379"
           style="stroke-width:1.48156" /><path
           class="cls-1"
           d="m 41.498607,118.44446 v 0.23705 h 8.785675 l 0.340759,-3.3187 h 1.807508 v 5.51142 H 38.53548 v -2.19272 l 10.889494,-15.79347 v -0.23705 h -8.311573 l -0.34076,3.34833 h -1.807508 v -5.60031 h 13.511863 v 2.19272 z"
           id="path4381"
           style="stroke-width:1.48156" /><path
           class="cls-1"
           d="m 61.855296,100.39901 v 18.40103 l 2.474212,0.34076 v 1.73343 h -7.289295 v -1.73343 l 2.429765,-0.34076 v -16.29721 l -2.429765,-0.34076 v -1.76306 z m -1.229698,-7.407819 a 1.4815639,1.4815639 0 0 1 1.481564,1.481564 1.4815639,1.4815639 0 0 1 -1.481564,1.377855 1.3630388,1.3630388 0 0 1 -1.377855,-1.377855 1.4815639,1.4815639 0 0 1 1.392671,-1.407486 z"
           id="path4383"
           style="stroke-width:1.48156" /><path
           class="cls-1"
           d="m 66.848166,100.39901 h 4.815083 v 14.59341 c 0,2.59274 1.037095,3.62983 3.615016,3.62983 h 5.837361 v -16.08979 l -2.4594,-0.34075 v -1.7927 h 7.27448 v 1.73343 l -2.41495,0.34076 v 16.29721 l 2.41495,0.34076 v 1.73343 H 75.041215 c -3.777988,0 -5.704021,-1.92604 -5.704021,-5.70402 v -12.60812 l -2.429765,-0.34075 z"
           id="path4385"
           style="stroke-width:1.48156" /><path
           class="cls-1"
           d="m 95.323826,102.65099 v 16.14905 l 2.4594,0.34076 v 1.73343 h -7.27448 v -1.73343 l 2.41495,-0.34076 v -16.29721 l -2.41495,-0.34076 v -1.76306 h 19.527014 c 3.77799,0 5.70402,1.92604 5.70402,5.70402 v 12.63775 l 2.42976,0.34076 v 1.73343 h -4.81508 v -14.4897 c 0,-2.54829 -1.05191,-3.62983 -3.62983,-3.62983 h -4.19283 v 16.14905 l 2.4594,0.34076 v 1.73342 h -4.84471 v -18.26768 z"
           id="path4387"
           style="stroke-width:1.48156" /></g></g><g
       aria-label="Přihlašovací údaje"
       transform="matrix(1.140938,0,0,1.140938,-10.025466,-9.3314061)"
       id="text5690"
       style="font-size:9.87777px;white-space:pre;inline-size:113.038;display:inline;fill:#406280;stroke-width:0.264583"><path
         d="M 16.362151,28.851402 V 21.64063 h 2.400298 q 0.721077,0 1.254477,0.276577 0.543277,0.276578 0.83961,0.780344 0.296333,0.493889 0.296333,1.165577 0,0.671689 -0.296333,1.175455 -0.296333,0.493888 -0.83961,0.770466 -0.5334,0.276578 -1.254477,0.276578 h -1.165577 v 2.765775 z m 1.234721,-3.85233 h 1.165577 q 0.523522,0 0.829733,-0.316089 0.306211,-0.316088 0.306211,-0.819855 0,-0.503766 -0.306211,-0.819855 -0.306211,-0.316088 -0.829733,-0.316088 h -1.165577 z"
         style="font-weight:bold;font-family:'JetBrains Mono';-inkscape-font-specification:'JetBrains Mono Bold'"
         id="path6480" /><path
         d="m 22.446861,28.851402 v -5.432773 h 1.205088 v 1.037165 h 0.02963 q 0.07902,-0.533399 0.474133,-0.829732 0.395111,-0.306211 1.007532,-0.306211 0.839611,0 1.343377,0.553155 0.503766,0.543277 0.503766,1.491543 v 0.4445 h -1.293988 v -0.3556 q 0,-0.503766 -0.266699,-0.780344 -0.256822,-0.286455 -0.750711,-0.286455 -1.01741,0 -1.01741,1.135944 v 3.328808 z M 24.116205,22.48024 22.76295,21.097352 h 1.185333 l 0.75071,0.721078 0.721077,-0.721078 h 1.195211 l -1.353255,1.382888 z"
         style="font-weight:bold;font-family:'JetBrains Mono';-inkscape-font-specification:'JetBrains Mono Bold'"
         id="path6482" /><path
         d="m 28.205606,28.851402 v -1.116188 h 1.85702 v -3.200397 h -1.659465 v -1.116188 h 2.894187 v 4.316585 h 1.669343 v 1.116188 z m 2.39042,-6.341528 q -0.375355,0 -0.592666,-0.187678 -0.217311,-0.197555 -0.217311,-0.523522 0,-0.325966 0.217311,-0.513644 0.217311,-0.197555 0.592666,-0.197555 0.375355,0 0.592666,0.197555 0.217311,0.187678 0.217311,0.513644 0,0.325967 -0.217311,0.523522 -0.217311,0.187678 -0.592666,0.187678 z"
         style="font-weight:bold;font-family:'JetBrains Mono';-inkscape-font-specification:'JetBrains Mono Bold'"
         id="path6484" /><path
         d="M 34.14215,28.851402 V 21.64063 h 1.234721 v 1.777999 l -0.02963,1.037165 h 0.01976 q 0.0889,-0.533399 0.464255,-0.829732 0.375356,-0.306211 0.9779,-0.306211 0.800099,0 1.274232,0.533399 0.484011,0.5334 0.484011,1.432277 v 3.565875 h -1.234722 v -3.437464 q 0,-0.493888 -0.266699,-0.760588 -0.256822,-0.2667 -0.701322,-0.2667 -0.464255,0 -0.730955,0.276578 -0.256822,0.276577 -0.256822,0.790221 v 3.397953 z"
         style="font-weight:bold;font-family:'JetBrains Mono';-inkscape-font-specification:'JetBrains Mono Bold'"
         id="path6486" /><path
         d="m 43.15068,28.851402 q -0.809977,0 -1.303865,-0.48401 -0.484011,-0.484011 -0.484011,-1.274233 V 22.756818 H 39.574927 V 21.64063 h 3.022598 v 5.422896 q 0,0.306211 0.167922,0.493888 0.1778,0.1778 0.474133,0.1778 h 1.590321 v 1.116188 z"
         style="font-weight:bold;font-family:'JetBrains Mono';-inkscape-font-specification:'JetBrains Mono Bold'"
         id="path6488" /><path
         d="m 47.595681,28.95018 q -0.839611,0 -1.323621,-0.434622 -0.484011,-0.4445 -0.484011,-1.205088 0,-0.800099 0.553155,-1.234721 0.553155,-0.4445 1.540932,-0.4445 h 1.303866 v -0.454377 q 0,-0.395111 -0.256822,-0.612422 -0.256822,-0.217311 -0.721077,-0.217311 -0.424744,0 -0.701322,0.1778 -0.2667,0.1778 -0.296333,0.474133 h -1.175455 q 0.03951,-0.760589 0.642055,-1.214966 0.612422,-0.464255 1.570566,-0.464255 1.007532,0 1.590321,0.493888 0.582788,0.493889 0.582788,1.353255 v 3.684408 h -1.19521 V 27.93277 h -0.01975 q -0.108656,0.474133 -0.5334,0.75071 -0.424744,0.2667 -1.076677,0.2667 z m 0.404989,-0.918633 q 0.523521,0 0.849488,-0.256822 0.335844,-0.266699 0.335844,-0.701321 V 26.421471 H 47.91177 q -0.414867,0 -0.651933,0.217311 -0.237067,0.207433 -0.237067,0.57291 0,0.385233 0.256822,0.602544 0.2667,0.217311 0.721078,0.217311 z"
         style="font-weight:bold;font-family:'JetBrains Mono';-inkscape-font-specification:'JetBrains Mono Bold'"
         id="path6490" /><path
         d="m 53.917458,28.940302 q -0.6223,0 -1.096433,-0.187677 -0.474132,-0.197556 -0.740832,-0.553156 -0.256822,-0.355599 -0.256822,-0.83961 h 1.244599 q 0,0.286455 0.227188,0.4445 0.237067,0.148166 0.632178,0.148166 h 0.424744 q 0.464255,0 0.691444,-0.167922 0.227189,-0.167922 0.227189,-0.464255 0,-0.563033 -0.839611,-0.691444 l -0.760588,-0.09878 q -1.708855,-0.246944 -1.708855,-1.629832 0,-0.770466 0.513645,-1.165577 0.523521,-0.404988 1.511298,-0.404988 h 0.375356 q 0.918632,0 1.471787,0.414866 0.563033,0.404989 0.563033,1.076677 h -1.244599 q 0,-0.237067 -0.207433,-0.365478 -0.207433,-0.138288 -0.592666,-0.138288 h -0.375355 q -0.809978,0 -0.809978,0.582788 0,0.503766 0.721078,0.612422 l 0.770466,0.118533 q 0.918632,0.128411 1.363132,0.5334 0.454378,0.404988 0.454378,1.126066 0,0.780343 -0.543278,1.214965 -0.533399,0.434622 -1.580443,0.434622 z M 53.551981,22.48024 52.198726,21.097352 h 1.185332 l 0.750711,0.721078 0.721077,-0.721078 h 1.19521 l -1.353254,1.382888 z"
         style="font-weight:bold;font-family:'JetBrains Mono';-inkscape-font-specification:'JetBrains Mono Bold'"
         id="path6492" /><path
         d="m 60.051557,28.940302 q -1.047043,0 -1.659465,-0.57291 -0.612422,-0.582789 -0.612422,-1.560688 v -1.343377 q 0,-0.977899 0.612422,-1.55081 0.612422,-0.582788 1.659465,-0.582788 1.047044,0 1.659466,0.582788 0.612422,0.572911 0.612422,1.540932 v 1.353255 q 0,0.977899 -0.612422,1.560688 -0.612422,0.57291 -1.659466,0.57291 z m 0,-1.076677 q 0.493889,0 0.760589,-0.2667 0.276577,-0.276577 0.276577,-0.790221 v -1.343377 q 0,-0.513644 -0.276577,-0.780344 -0.2667,-0.276577 -0.760589,-0.276577 -0.493888,0 -0.770466,0.276577 -0.266699,0.2667 -0.266699,0.780344 v 1.343377 q 0,0.513644 0.266699,0.790221 0.276578,0.2667 0.770466,0.2667 z"
         style="font-weight:bold;font-family:'JetBrains Mono';-inkscape-font-specification:'JetBrains Mono Bold'"
         id="path6494" /><path
         d="m 65.19788,28.851402 -1.866899,-5.432773 h 1.28411 l 1.096433,3.299175 q 0.09878,0.296333 0.167922,0.612422 0.07902,0.316088 0.118533,0.503766 0.04939,-0.187678 0.118533,-0.503766 0.06915,-0.316089 0.158045,-0.602544 l 1.076677,-3.309053 h 1.274232 l -1.857021,5.432773 z"
         style="font-weight:bold;font-family:'JetBrains Mono';-inkscape-font-specification:'JetBrains Mono Bold'"
         id="path6496" /><path
         d="m 71.302346,28.95018 q -0.839611,0 -1.323621,-0.434622 -0.484011,-0.4445 -0.484011,-1.205088 0,-0.800099 0.553155,-1.234721 0.553155,-0.4445 1.540932,-0.4445 h 1.303866 v -0.454377 q 0,-0.395111 -0.256822,-0.612422 -0.256822,-0.217311 -0.721077,-0.217311 -0.424744,0 -0.701322,0.1778 -0.2667,0.1778 -0.296333,0.474133 h -1.175455 q 0.03951,-0.760589 0.642055,-1.214966 0.612422,-0.464255 1.570566,-0.464255 1.007532,0 1.590321,0.493888 0.582788,0.493889 0.582788,1.353255 v 3.684408 h -1.19521 V 27.93277 h -0.01975 q -0.108656,0.474133 -0.5334,0.75071 -0.424744,0.2667 -1.076677,0.2667 z m 0.404989,-0.918633 q 0.523521,0 0.849488,-0.256822 0.335844,-0.266699 0.335844,-0.701321 v -0.651933 h -1.274232 q -0.414867,0 -0.651933,0.217311 -0.237067,0.207433 -0.237067,0.57291 0,0.385233 0.256822,0.602544 0.2667,0.217311 0.721078,0.217311 z"
         style="font-weight:bold;font-family:'JetBrains Mono';-inkscape-font-specification:'JetBrains Mono Bold'"
         id="path6498" /><path
         d="m 77.86119,28.95018 q -0.691444,0 -1.214966,-0.256822 -0.513644,-0.2667 -0.8001,-0.740833 -0.286455,-0.484011 -0.286455,-1.135943 v -1.363133 q 0,-0.651933 0.286455,-1.126066 0.286456,-0.48401 0.8001,-0.740832 0.523522,-0.2667 1.214966,-0.2667 1.027288,0 1.639709,0.533399 0.612422,0.523522 0.642056,1.432277 h -1.205088 q -0.02963,-0.424744 -0.325967,-0.651933 -0.286455,-0.237066 -0.75071,-0.237066 -0.493889,0 -0.780344,0.276577 -0.286456,0.2667 -0.286456,0.770466 v 1.373011 q 0,0.503766 0.286456,0.780343 0.286455,0.276578 0.780344,0.276578 0.474133,0 0.760588,-0.227189 0.286455,-0.237066 0.316089,-0.66181 h 1.205088 q -0.02963,0.908755 -0.642056,1.442154 -0.612421,0.523522 -1.639709,0.523522 z"
         style="font-weight:bold;font-family:'JetBrains Mono';-inkscape-font-specification:'JetBrains Mono Bold'"
         id="path6500" /><path
         d="m 81.545602,28.851402 v -1.116188 h 1.857021 v -3.200397 h -1.659466 v -1.116188 h 2.894187 v 4.316585 h 1.669343 v 1.116188 z m 1.63971,-6.371162 1.047043,-1.382888 h 1.323622 l -1.126066,1.382888 z"
         style="font-weight:bold;font-family:'JetBrains Mono';-inkscape-font-specification:'JetBrains Mono Bold'"
         id="path6502" /><path
         d="m 95.611555,28.95018 q -1.037166,0 -1.629832,-0.572911 -0.592666,-0.582788 -0.592666,-1.580443 v -3.378197 h 1.234721 v 3.368319 q 0,0.523522 0.256822,0.809977 0.256822,0.276578 0.730955,0.276578 0.464255,0 0.721077,-0.276578 0.2667,-0.286455 0.2667,-0.809977 v -3.368319 h 1.234721 v 3.378197 q 0,0.997655 -0.602544,1.580443 -0.602544,0.572911 -1.619954,0.572911 z m -0.750711,-6.46994 1.047044,-1.382888 h 1.323621 l -1.126065,1.382888 z"
         style="font-weight:bold;font-family:'JetBrains Mono';-inkscape-font-specification:'JetBrains Mono Bold'"
         id="path6504" /><path
         d="m 101.04433,28.95018 q -0.79022,0 -1.284107,-0.563033 -0.493889,-0.563033 -0.493889,-1.511299 V 25.40406 q 0,-0.958143 0.484011,-1.521176 0.493885,-0.563033 1.293985,-0.563033 0.56304,0 0.94827,0.286455 0.38523,0.276578 0.5334,0.790222 h 0.0198 l -0.0395,-1.234721 V 21.64063 h 1.23472 v 7.210772 h -1.20508 v -0.977899 h -0.01 q -0.14817,0.513644 -0.5334,0.800099 -0.37536,0.276578 -0.94827,0.276578 z m 0.46426,-1.066799 q 0.47413,0 0.73095,-0.286456 0.2667,-0.286455 0.2667,-0.809977 v -1.303865 q 0,-0.523522 -0.2667,-0.809978 -0.25682,-0.286455 -0.73095,-0.286455 -0.47414,0 -0.74083,0.276578 -0.2667,0.276577 -0.2667,0.790221 v 1.363133 q 0,0.513644 0.2667,0.790221 0.26669,0.276578 0.74083,0.276578 z"
         style="font-weight:bold;font-family:'JetBrains Mono';-inkscape-font-specification:'JetBrains Mono Bold'"
         id="path6506" /><path
         d="m 106.86234,28.95018 q -0.83961,0 -1.32362,-0.434622 -0.48401,-0.4445 -0.48401,-1.205088 0,-0.800099 0.55316,-1.234721 0.55315,-0.4445 1.54093,-0.4445 h 1.30386 v -0.454377 q 0,-0.395111 -0.25682,-0.612422 -0.25682,-0.217311 -0.72107,-0.217311 -0.42475,0 -0.70133,0.1778 -0.2667,0.1778 -0.29633,0.474133 h -1.17545 q 0.0395,-0.760589 0.64205,-1.214966 0.61242,-0.464255 1.57057,-0.464255 1.00753,0 1.59032,0.493888 0.58279,0.493889 0.58279,1.353255 v 3.684408 h -1.19521 V 27.93277 h -0.0198 q -0.10866,0.474133 -0.5334,0.75071 -0.42474,0.2667 -1.07668,0.2667 z m 0.40499,-0.918633 q 0.52352,0 0.84949,-0.256822 0.33584,-0.266699 0.33584,-0.701321 v -0.651933 h -1.27423 q -0.41486,0 -0.65193,0.217311 -0.23707,0.207433 -0.23707,0.57291 0,0.385233 0.25682,0.602544 0.2667,0.217311 0.72108,0.217311 z"
         style="font-weight:bold;font-family:'JetBrains Mono';-inkscape-font-specification:'JetBrains Mono Bold'"
         id="path6508" /><path
         d="m 111.0604,30.629401 v -1.116188 h 1.6002 q 0.47413,0 0.75071,-0.286455 0.27658,-0.276578 0.27658,-0.760589 v -3.931352 h -2.42993 v -1.116188 h 3.66465 v 5.077174 q 0,0.987777 -0.59267,1.560687 -0.59266,0.572911 -1.6002,0.572911 z m 3.23003,-8.119527 q -0.37535,0 -0.59267,-0.187678 -0.21731,-0.197555 -0.21731,-0.523522 0,-0.325966 0.21731,-0.513644 0.21732,-0.197555 0.59267,-0.197555 0.37536,0 0.59267,0.197555 0.21731,0.187678 0.21731,0.513644 0,0.325967 -0.21731,0.523522 -0.21731,0.187678 -0.59267,0.187678 z"
         style="font-weight:bold;font-family:'JetBrains Mono';-inkscape-font-specification:'JetBrains Mono Bold'"
         id="path6510" /><path
         d="m 119.3281,28.95018 q -0.69145,0 -1.20509,-0.2667 -0.51364,-0.2667 -0.8001,-0.740833 -0.27658,-0.48401 -0.27658,-1.126065 v -1.363133 q 0,-0.642055 0.27658,-1.116188 0.28646,-0.484011 0.8001,-0.75071 0.51364,-0.2667 1.20509,-0.2667 0.68156,0 1.18533,0.2667 0.51364,0.266699 0.79022,0.75071 0.28646,0.474133 0.28646,1.116188 v 0.9779 h -3.34857 v 0.385233 q 0,1.155699 1.09644,1.155699 0.84948,0 0.99765,-0.563033 h 1.21497 q -0.13829,0.701322 -0.75071,1.126066 -0.60255,0.414866 -1.47179,0.414866 z m -1.08656,-3.496731 v 0.207433 l 2.15336,-0.0099 v -0.207434 q 0,-0.563032 -0.2667,-0.859366 -0.2667,-0.30621 -0.8001,-0.30621 -0.54328,0 -0.81986,0.30621 -0.2667,0.306211 -0.2667,0.869244 z"
         style="font-weight:bold;font-family:'JetBrains Mono';-inkscape-font-specification:'JetBrains Mono Bold'"
         id="path6512" /></g><g
       aria-label="PORTÁL PRO PŘIJÍMACÍ ŘÍZENÍ"
       id="text5791"
       style="font-size:9.87777px;fill:#406280;stroke-width:0.264583"><path
         d="m 25.079997,46.865219 v -7.210772 h 2.321276 q 1.007532,0 1.600198,0.582788 0.602544,0.572911 0.602544,1.540932 0,0.968022 -0.602544,1.55081 -0.592666,0.572911 -1.600198,0.572911 h -1.432277 v 2.963331 z m 0.888999,-3.76343 h 1.432277 q 0.582788,0 0.92851,-0.3556 0.3556,-0.365478 0.3556,-0.968022 0,-0.612421 -0.3556,-0.968021 -0.345722,-0.3556 -0.92851,-0.3556 h -1.432277 z"
         style="font-family:'JetBrains Mono';-inkscape-font-specification:'JetBrains Mono'"
         id="path6431" /><path
         d="m 33.061239,46.963997 q -0.968021,0 -1.531054,-0.553155 -0.563033,-0.553155 -0.563033,-1.521177 v -3.259664 q 0,-0.968022 0.563033,-1.521177 0.563033,-0.553155 1.531054,-0.553155 0.968022,0 1.531055,0.553155 0.563032,0.543278 0.563032,1.511299 v 3.269542 q 0,0.968022 -0.563032,1.521177 -0.563033,0.553155 -1.531055,0.553155 z m 0,-0.8001 q 0.582789,0 0.888999,-0.325966 0.316089,-0.335844 0.316089,-0.948266 v -3.259664 q 0,-0.612422 -0.316089,-0.938388 -0.30621,-0.335845 -0.888999,-0.335845 -0.572911,0 -0.888999,0.335845 -0.316089,0.325966 -0.316089,0.938388 v 3.259664 q 0,0.612422 0.316089,0.948266 0.316088,0.325966 0.888999,0.325966 z"
         style="font-family:'JetBrains Mono';-inkscape-font-specification:'JetBrains Mono'"
         id="path6433" /><path
         d="m 36.933329,46.865219 v -7.210772 h 2.232376 q 0.642055,0 1.126066,0.2667 0.484011,0.256822 0.750711,0.721077 0.266699,0.464255 0.266699,1.086554 0,0.730956 -0.385233,1.254477 -0.375355,0.523522 -1.027288,0.721078 l 1.511299,3.160886 H 40.360915 L 38.978028,43.80311 h -1.1557 v 3.062109 z m 0.888999,-3.862208 h 1.343377 q 0.553155,0 0.889,-0.345722 0.335844,-0.3556 0.335844,-0.928511 0,-0.582788 -0.335844,-0.92851 -0.335845,-0.345722 -0.889,-0.345722 h -1.343377 z"
         style="font-family:'JetBrains Mono';-inkscape-font-specification:'JetBrains Mono'"
         id="path6435" /><path
         d="m 44.470072,46.865219 v -6.400795 h -1.975554 v -0.809977 h 4.840107 v 0.809977 h -1.975554 v 6.400795 z"
         style="font-family:'JetBrains Mono';-inkscape-font-specification:'JetBrains Mono'"
         id="path6437" /><path
         d="m 48.371795,46.865219 1.876777,-7.210772 h 1.19521 l 1.866899,7.210772 H 52.411803 L 51.93767,44.948932 h -2.182987 l -0.474133,1.916287 z m 1.560688,-2.666998 h 1.81751 l -0.553155,-2.222498 q -0.158045,-0.632178 -0.246945,-1.056922 -0.0889,-0.424744 -0.108655,-0.553155 -0.01976,0.128411 -0.108656,0.553155 -0.0889,0.424744 -0.246944,1.047044 z m 0.335844,-5.333996 1.047044,-1.382888 h 0.958144 l -1.096433,1.382888 z"
         style="font-family:'JetBrains Mono';-inkscape-font-specification:'JetBrains Mono'"
         id="path6439" /><path
         d="m 55.088683,46.865219 v -7.210772 h 0.889 v 6.400795 h 3.259664 v 0.809977 z"
         style="font-family:'JetBrains Mono';-inkscape-font-specification:'JetBrains Mono'"
         id="path6441" /><path
         d="m 66.56666,46.865219 v -7.210772 h 2.321277 q 1.007532,0 1.600198,0.582788 0.602544,0.572911 0.602544,1.540932 0,0.968022 -0.602544,1.55081 -0.592666,0.572911 -1.600198,0.572911 H 67.45566 v 2.963331 z m 0.889,-3.76343 h 1.432277 q 0.582788,0 0.92851,-0.3556 0.3556,-0.365478 0.3556,-0.968022 0,-0.612421 -0.3556,-0.968021 -0.345722,-0.3556 -0.92851,-0.3556 H 67.45566 Z"
         style="font-family:'JetBrains Mono';-inkscape-font-specification:'JetBrains Mono'"
         id="path6443" /><path
         d="m 72.493327,46.865219 v -7.210772 h 2.232376 q 0.642055,0 1.126066,0.2667 0.48401,0.256822 0.75071,0.721077 0.2667,0.464255 0.2667,1.086554 0,0.730956 -0.385233,1.254477 -0.375355,0.523522 -1.027288,0.721078 l 1.511299,3.160886 H 75.920913 L 74.538025,43.80311 h -1.155699 v 3.062109 z m 0.888999,-3.862208 h 1.343377 q 0.553155,0 0.888999,-0.345722 0.335844,-0.3556 0.335844,-0.928511 0,-0.582788 -0.335844,-0.92851 -0.335844,-0.345722 -0.888999,-0.345722 h -1.343377 z"
         style="font-family:'JetBrains Mono';-inkscape-font-specification:'JetBrains Mono'"
         id="path6445" /><path
         d="m 80.474569,46.963997 q -0.968021,0 -1.531054,-0.553155 -0.563033,-0.553155 -0.563033,-1.521177 v -3.259664 q 0,-0.968022 0.563033,-1.521177 0.563033,-0.553155 1.531054,-0.553155 0.968022,0 1.531055,0.553155 0.563033,0.543278 0.563033,1.511299 v 3.269542 q 0,0.968022 -0.563033,1.521177 -0.563033,0.553155 -1.531055,0.553155 z m 0,-0.8001 q 0.582789,0 0.889,-0.325966 0.316088,-0.335844 0.316088,-0.948266 v -3.259664 q 0,-0.612422 -0.316088,-0.938388 -0.306211,-0.335845 -0.889,-0.335845 -0.57291,0 -0.888999,0.335845 -0.316089,0.325966 -0.316089,0.938388 v 3.259664 q 0,0.612422 0.316089,0.948266 0.316089,0.325966 0.888999,0.325966 z"
         style="font-family:'JetBrains Mono';-inkscape-font-specification:'JetBrains Mono'"
         id="path6447" /><path
         d="m 90.273325,46.865219 v -7.210772 h 2.321277 q 1.007532,0 1.600198,0.582788 0.602544,0.572911 0.602544,1.540932 0,0.968022 -0.602544,1.55081 -0.592666,0.572911 -1.600198,0.572911 h -1.432277 v 2.963331 z m 0.889,-3.76343 h 1.432277 q 0.582788,0 0.92851,-0.3556 0.3556,-0.365478 0.3556,-0.968022 0,-0.612421 -0.3556,-0.968021 -0.345722,-0.3556 -0.92851,-0.3556 h -1.432277 z"
         style="font-family:'JetBrains Mono';-inkscape-font-specification:'JetBrains Mono'"
         id="path6449" /><path
         d="m 96.199992,46.865219 v -7.210772 h 2.232376 q 0.642055,0 1.126066,0.2667 0.484006,0.256822 0.750706,0.721077 0.2667,0.464255 0.2667,1.086554 0,0.730956 -0.38523,1.254477 -0.375354,0.523522 -1.027287,0.721078 l 1.511297,3.160886 H 99.627578 L 98.24469,43.80311 h -1.155699 v 3.062109 z m 0.888999,-3.862208 h 1.343377 q 0.553155,0 0.888999,-0.345722 0.335844,-0.3556 0.335844,-0.928511 0,-0.582788 -0.335844,-0.92851 -0.335844,-0.345722 -0.888999,-0.345722 h -1.343377 z m 0.760588,-4.138786 -1.382887,-1.382888 h 0.977899 l 0.809977,0.770466 0.790222,-0.770466 h 0.99765 l -1.373006,1.382888 z"
         style="font-family:'JetBrains Mono';-inkscape-font-specification:'JetBrains Mono'"
         id="path6451" /><path
         d="m 102.25507,46.865219 v -0.809977 h 1.47179 v -5.590818 h -1.47179 v -0.809977 h 3.85233 v 0.809977 h -1.47179 v 5.590818 h 1.47179 v 0.809977 z"
         style="font-family:'JetBrains Mono';-inkscape-font-specification:'JetBrains Mono'"
         id="path6453" /><path
         d="m 109.81157,46.963997 q -1.03717,0 -1.62983,-0.582789 -0.59267,-0.582788 -0.59267,-1.590321 h 0.889 q 0,0.661811 0.34572,1.027288 0.3556,0.3556 0.98778,0.3556 0.63217,0 0.9779,-0.3556 0.3556,-0.365477 0.3556,-1.027288 v -4.326463 h -2.02495 v -0.809977 h 2.91395 v 5.13644 q 0,1.007533 -0.60255,1.590321 -0.59266,0.582789 -1.61995,0.582789 z"
         style="font-family:'JetBrains Mono';-inkscape-font-specification:'JetBrains Mono'"
         id="path6455" /><path
         d="m 114.1084,46.865219 v -0.809977 h 1.47179 v -5.590818 h -1.47179 v -0.809977 h 3.85233 v 0.809977 h -1.47179 v 5.590818 h 1.47179 v 0.809977 z m 1.35326,-8.000994 1.04704,-1.382888 h 0.95814 l -1.09643,1.382888 z"
         style="font-family:'JetBrains Mono';-inkscape-font-specification:'JetBrains Mono'"
         id="path6457" /><path
         d="m 119.74861,46.865219 v -7.210772 h 1.16558 l 0.77047,2.331154 q 0.10865,0.316088 0.1778,0.632177 0.079,0.306211 0.11853,0.474133 0.0395,-0.167922 0.11853,-0.474133 0.079,-0.316089 0.1778,-0.642055 l 0.73096,-2.321276 h 1.16557 v 7.210772 h -0.86924 v -3.407831 q 0,-0.879121 0.079,-1.72861 0.079,-0.849488 0.1778,-1.629832 l -1.17545,3.605387 h -0.84949 l -1.18533,-3.605387 q 0.10865,0.750711 0.18767,1.570566 0.079,0.819855 0.079,1.787876 v 3.407831 z"
         style="font-family:'JetBrains Mono';-inkscape-font-specification:'JetBrains Mono'"
         id="path6459" /><path
         d="m 125.41846,46.865219 1.87677,-7.210772 h 1.19521 l 1.8669,7.210772 h -0.89888 l -0.47413,-1.916287 h -2.18299 l -0.47413,1.916287 z m 1.56068,-2.666998 h 1.81751 l -0.55315,-2.222498 q -0.15805,-0.632178 -0.24695,-1.056922 -0.0889,-0.424744 -0.10865,-0.553155 -0.0198,0.128411 -0.10866,0.553155 -0.0889,0.424744 -0.24694,1.047044 z"
         style="font-family:'JetBrains Mono';-inkscape-font-specification:'JetBrains Mono'"
         id="path6461" /><path
         d="m 133.85408,46.963997 q -0.98778,0 -1.56069,-0.553155 -0.57291,-0.553155 -0.57291,-1.521177 v -3.259664 q 0,-0.968022 0.57291,-1.521177 0.57291,-0.553155 1.56069,-0.553155 0.96802,0 1.54093,0.563033 0.57291,0.553155 0.57291,1.511299 h -0.889 q 0,-0.612422 -0.32597,-0.938388 -0.31608,-0.335845 -0.89887,-0.335845 -0.58279,0 -0.91864,0.325967 -0.32596,0.325966 -0.32596,0.938388 v 3.269542 q 0,0.612422 0.32596,0.948266 0.33585,0.325966 0.91864,0.325966 0.58279,0 0.89887,-0.325966 0.32597,-0.335844 0.32597,-0.948266 h 0.889 q 0,0.958144 -0.57291,1.521177 -0.57291,0.553155 -1.54093,0.553155 z"
         style="font-family:'JetBrains Mono';-inkscape-font-specification:'JetBrains Mono'"
         id="path6463" /><path
         d="m 137.81507,46.865219 v -0.809977 h 1.47178 v -5.590818 h -1.47178 v -0.809977 h 3.85233 v 0.809977 h -1.47179 v 5.590818 h 1.47179 v 0.809977 z m 1.35325,-8.000994 1.04704,-1.382888 h 0.95815 l -1.09643,1.382888 z"
         style="font-family:'JetBrains Mono';-inkscape-font-specification:'JetBrains Mono'"
         id="path6465" /><path
         d="m 149.53999,46.865219 v -7.210772 h 2.23237 q 0.64206,0 1.12607,0.2667 0.48401,0.256822 0.75071,0.721077 0.2667,0.464255 0.2667,1.086554 0,0.730956 -0.38523,1.254477 -0.37536,0.523522 -1.02729,0.721078 l 1.5113,3.160886 h -1.04705 l -1.38288,-3.062109 h -1.1557 v 3.062109 z m 0.889,-3.862208 h 1.34337 q 0.55316,0 0.889,-0.345722 0.33585,-0.3556 0.33585,-0.928511 0,-0.582788 -0.33585,-0.92851 -0.33584,-0.345722 -0.889,-0.345722 h -1.34337 z m 0.76059,-4.138786 -1.38289,-1.382888 h 0.9779 l 0.80997,0.770466 0.79023,-0.770466 h 0.99765 l -1.37301,1.382888 z"
         style="font-family:'JetBrains Mono';-inkscape-font-specification:'JetBrains Mono'"
         id="path6467" /><path
         d="m 155.59507,46.865219 v -0.809977 h 1.47178 v -5.590818 h -1.47178 v -0.809977 h 3.85233 v 0.809977 h -1.47179 v 5.590818 h 1.47179 v 0.809977 z m 1.35325,-8.000994 1.04704,-1.382888 h 0.95815 l -1.09644,1.382888 z"
         style="font-family:'JetBrains Mono';-inkscape-font-specification:'JetBrains Mono'"
         id="path6469" /><path
         d="M 161.32418,46.865219 V 45.97622 l 3.24978,-5.511796 h -3.20039 v -0.809977 h 4.09927 v 0.888999 l -3.24979,5.511796 h 3.34857 v 0.809977 z"
         style="font-family:'JetBrains Mono';-inkscape-font-specification:'JetBrains Mono'"
         id="path6471" /><path
         d="m 167.39901,46.865219 v -7.210772 h 4.14866 v 0.809977 h -3.26954 V 42.6968 h 2.92382 v 0.790222 h -2.92382 v 2.56822 h 3.26954 v 0.809977 z"
         style="font-family:'JetBrains Mono';-inkscape-font-specification:'JetBrains Mono'"
         id="path6473" /><path
         d="m 173.2269,46.865219 v -7.210772 h 1.18533 l 2.20274,6.173606 q -0.0197,-0.246944 -0.0494,-0.602544 -0.0198,-0.365477 -0.0395,-0.760588 -0.01,-0.404989 -0.01,-0.760588 v -4.049886 h 0.85936 v 7.210772 h -1.18533 l -2.19287,-6.173606 q 0.0198,0.237066 0.0395,0.602544 0.0198,0.355599 0.0296,0.760588 0.0198,0.395111 0.0198,0.760588 v 4.049886 z"
         style="font-family:'JetBrains Mono';-inkscape-font-specification:'JetBrains Mono'"
         id="path6475" /><path
         d="m 179.30173,46.865219 v -0.809977 h 1.47179 v -5.590818 h -1.47179 v -0.809977 h 3.85233 v 0.809977 h -1.47179 v 5.590818 h 1.47179 v 0.809977 z m 1.35325,-8.000994 1.04705,-1.382888 h 0.95814 l -1.09643,1.382888 z"
         style="font-family:'JetBrains Mono';-inkscape-font-specification:'JetBrains Mono'"
         id="path6477" /></g><g
       aria-label="Ev. č. přihlášky:"
       id="text5795"
       style="font-size:9.87777px;fill:#406280;stroke-width:0.264583"><path
         d="m 13.921366,109.9283 v -7.21077 h 4.148664 v 0.80997 h -3.269542 v 2.23238 h 2.92382 v 0.79022 h -2.92382 v 2.56822 h 3.269542 v 0.80998 z"
         style="font-family:'JetBrains Mono';-inkscape-font-specification:'JetBrains Mono';fill:#ffffff"
         id="path6300" /><path
         d="m 21.240798,109.9283 -1.886654,-5.43277 h 0.918632 l 1.264355,3.65477 q 0.108656,0.32597 0.187678,0.63218 0.07902,0.29633 0.118533,0.46425 0.04939,-0.16792 0.118533,-0.46425 0.06915,-0.30621 0.1778,-0.63218 l 1.224844,-3.65477 h 0.92851 l -1.886654,5.43277 z"
         style="font-family:'JetBrains Mono';-inkscape-font-specification:'JetBrains Mono';fill:#ffffff"
         id="path6302" /><path
         d="m 27.750253,110.02708 q -0.375356,0 -0.602544,-0.21731 -0.217311,-0.21732 -0.217311,-0.58279 0,-0.38524 0.217311,-0.61242 0.227188,-0.22719 0.602544,-0.22719 0.375355,0 0.592666,0.22719 0.227189,0.22718 0.227189,0.61242 0,0.36547 -0.227189,0.58279 -0.217311,0.21731 -0.592666,0.21731 z"
         style="font-family:'JetBrains Mono';-inkscape-font-specification:'JetBrains Mono';fill:#ffffff"
         id="path6304" /><path
         d="m 39.643096,110.02708 q -0.987777,0 -1.580443,-0.55316 -0.582788,-0.55315 -0.582788,-1.52118 v -1.48166 q 0,-0.96802 0.582788,-1.52118 0.592666,-0.55315 1.580443,-0.55315 0.938388,0 1.511299,0.50376 0.572911,0.50377 0.602544,1.37301 H 40.86794 q -0.02963,-0.52352 -0.3556,-0.8001 -0.316089,-0.28645 -0.869244,-0.28645 -0.582788,0 -0.92851,0.33584 -0.345722,0.32597 -0.345722,0.93839 v 1.49154 q 0,0.61243 0.345722,0.94827 0.345722,0.33585 0.92851,0.33585 0.553155,0 0.869244,-0.28646 0.325966,-0.28646 0.3556,-0.8001 h 0.888999 q -0.02963,0.86924 -0.602544,1.37301 -0.572911,0.50377 -1.511299,0.50377 z m -0.404988,-6.46994 -1.382888,-1.38289 h 0.977899 l 0.809977,0.77047 0.790222,-0.77047 h 0.997655 l -1.37301,1.38289 z"
         style="font-family:'JetBrains Mono';-inkscape-font-specification:'JetBrains Mono';fill:#ffffff"
         id="path6306" /><path
         d="m 45.530251,110.02708 q -0.375355,0 -0.602544,-0.21731 -0.217311,-0.21732 -0.217311,-0.58279 0,-0.38524 0.217311,-0.61242 0.227189,-0.22719 0.602544,-0.22719 0.375356,0 0.592667,0.22719 0.227188,0.22718 0.227188,0.61242 0,0.36547 -0.227188,0.58279 -0.217311,0.21731 -0.592667,0.21731 z"
         style="font-family:'JetBrains Mono';-inkscape-font-specification:'JetBrains Mono';fill:#ffffff"
         id="path6308" /><path
         d="m 55.338885,111.7063 v -7.21077 h 0.889 v 1.03716 h 0.0099 q 0.06914,-0.5334 0.464255,-0.82973 0.404988,-0.30621 1.01741,-0.30621 0.819855,0 1.303866,0.54327 0.493888,0.5334 0.493888,1.47179 v 1.59032 q 0,0.93839 -0.493888,1.48167 -0.484011,0.54328 -1.303866,0.54328 -0.612422,0 -1.007532,-0.30621 -0.395111,-0.30622 -0.474133,-0.82974 h -0.02963 l 0.01976,1.23472 v 1.58045 z m 2.08421,-2.44969 q 0.563033,0 0.879122,-0.33584 0.325966,-0.33585 0.325966,-0.96803 v -1.48166 q 0,-0.63218 -0.325966,-0.96802 -0.316089,-0.33585 -0.879122,-0.33585 -0.543277,0 -0.869244,0.34573 -0.325966,0.34572 -0.325966,0.95814 v 1.48166 q 0,0.61243 0.325966,0.95815 0.325967,0.34572 0.869244,0.34572 z"
         style="font-family:'JetBrains Mono';-inkscape-font-specification:'JetBrains Mono';fill:#ffffff"
         id="path6310" /><path
         d="m 61.423596,109.9283 v -5.43277 h 0.888999 v 1.03716 h 0.0099 q 0.06914,-0.54328 0.4445,-0.83961 0.375355,-0.29633 0.997655,-0.29633 0.849488,0 1.353254,0.54327 0.503766,0.5334 0.503766,1.45204 v 0.37535 h -0.888999 v -0.29633 q 0,-0.6223 -0.316089,-0.95814 -0.316088,-0.34573 -0.918632,-0.34573 -1.185333,0 -1.185333,1.30387 v 3.45722 z m 1.679221,-6.37116 -1.382888,-1.38289 h 0.977899 l 0.809978,0.77047 0.790221,-0.77047 h 0.997655 l -1.37301,1.38289 z"
         style="font-family:'JetBrains Mono';-inkscape-font-specification:'JetBrains Mono';fill:#ffffff"
         id="path6312" /><path
         d="m 67.113196,109.9283 v -0.80998 h 1.926165 v -3.81282 h -1.72861 v -0.80997 h 2.617609 v 4.62279 h 1.827388 v 0.80998 z m 2.271887,-6.41067 q -0.325966,0 -0.513644,-0.16793 -0.187678,-0.16792 -0.187678,-0.45437 0,-0.29634 0.187678,-0.46426 0.187678,-0.1778 0.513644,-0.1778 0.325966,0 0.513644,0.1778 0.187678,0.16792 0.187678,0.46426 0,0.28645 -0.187678,0.45437 -0.187678,0.16793 -0.513644,0.16793 z"
         style="font-family:'JetBrains Mono';-inkscape-font-specification:'JetBrains Mono';fill:#ffffff"
         id="path6314" /><path
         d="m 73.109006,109.9283 v -7.21077 h 0.889 v 2.81516 h 0.0099 q 0.06914,-0.54328 0.444499,-0.83961 0.375356,-0.29633 0.997655,-0.29633 0.819855,0 1.303866,0.50376 0.48401,0.50377 0.48401,1.37301 v 3.65478 h -0.888999 v -3.556 q 0,-0.58279 -0.316088,-0.89888 -0.306211,-0.32596 -0.839611,-0.32596 -0.553155,0 -0.879122,0.34572 -0.316088,0.34572 -0.316088,0.9779 v 3.45722 z"
         style="font-family:'JetBrains Mono';-inkscape-font-specification:'JetBrains Mono';fill:#ffffff"
         id="path6316" /><path
         d="m 81.880471,109.9283 q -0.721078,0 -1.1557,-0.41487 -0.424744,-0.42474 -0.424744,-1.11619 v -4.86974 h -1.876776 v -0.80997 h 2.765776 v 5.67971 q 0,0.33585 0.187677,0.5334 0.187678,0.18768 0.503767,0.18768 h 1.679221 v 0.80998 z"
         style="font-family:'JetBrains Mono';-inkscape-font-specification:'JetBrains Mono';fill:#ffffff"
         id="path6318" /><path
         d="m 86.542782,110.02708 q -0.859366,0 -1.353254,-0.43463 -0.493889,-0.44449 -0.493889,-1.19521 0,-0.76058 0.493889,-1.19521 0.493888,-0.43462 1.333499,-0.43462 h 1.679221 v -0.54327 q 0,-0.49389 -0.306211,-0.77047 -0.296333,-0.27658 -0.829733,-0.27658 -0.474133,0 -0.800099,0.20743 -0.325967,0.20744 -0.404989,0.54328 h -0.888999 q 0.04939,-0.45438 0.325966,-0.8001 0.286456,-0.34572 0.740833,-0.5334 0.464255,-0.19755 1.027288,-0.19755 0.938388,0 1.481666,0.48401 0.543277,0.48401 0.543277,1.31374 v 3.7338 h -0.869244 v -1.03717 h -0.0099 q -0.05927,0.52352 -0.513644,0.82974 -0.444499,0.30621 -1.155699,0.30621 z m 0.217311,-0.70133 q 0.632178,0 1.037166,-0.31608 0.404989,-0.31609 0.404989,-0.80998 v -0.77047 h -1.659466 q -0.444499,0 -0.701321,0.24695 -0.256822,0.24694 -0.256822,0.67169 0,0.45437 0.30621,0.72107 0.316089,0.25682 0.869244,0.25682 z m -0.2667,-5.76861 1.047044,-1.38289 h 0.958144 l -1.096433,1.38289 z"
         style="font-family:'JetBrains Mono';-inkscape-font-specification:'JetBrains Mono';fill:#ffffff"
         id="path6320" /><path
         d="m 92.775659,110.00732 q -0.83961,0 -1.37301,-0.38523 -0.533399,-0.38523 -0.533399,-1.05692 h 0.908755 q 0,0.30621 0.286455,0.48401 0.296333,0.16792 0.730955,0.16792 h 0.414866 q 0.523522,0 0.780344,-0.20743 0.256822,-0.21731 0.256822,-0.57291 0,-0.34573 -0.246944,-0.54328 -0.237067,-0.20743 -0.691444,-0.27658 l -0.730955,-0.11853 q -0.809977,-0.13829 -1.19521,-0.51365 -0.385233,-0.37535 -0.385233,-1.03716 0,-0.74084 0.474133,-1.13595 0.48401,-0.39511 1.382888,-0.39511 h 0.375355 q 0.829733,0 1.323621,0.37536 0.503766,0.36548 0.503766,0.9779 h -0.908755 q 0,-0.25682 -0.256822,-0.40499 -0.246944,-0.15805 -0.681566,-0.15805 h -0.375355 q -0.464255,0 -0.721077,0.19756 -0.246944,0.18768 -0.246944,0.54328 0,0.59266 0.83961,0.73095 l 0.730955,0.11854 q 0.879122,0.13828 1.274232,0.51364 0.404989,0.37536 0.404989,1.08655 0,0.75072 -0.484011,1.18534 -0.474133,0.42474 -1.442154,0.42474 z m -0.237066,-6.45018 -1.382888,-1.38289 h 0.977899 l 0.809977,0.77047 0.790222,-0.77047 h 0.997655 l -1.37301,1.38289 z"
         style="font-family:'JetBrains Mono';-inkscape-font-specification:'JetBrains Mono';fill:#ffffff"
         id="path6322" /><path
         d="m 96.845305,109.9283 v -7.21077 h 0.888999 v 4.02025 h 1.047044 l 1.580442,-2.24225 h 1.01741 l -1.827386,2.58797 1.857016,2.8448 h -1.03716 l -1.580444,-2.42005 h -1.056922 v 2.42005 z"
         style="font-family:'JetBrains Mono';-inkscape-font-specification:'JetBrains Mono';fill:#ffffff"
         id="path6324" /><path
         d="m 103.6017,111.7063 0.8001,-2.11385 -2.07433,-5.09692 h 0.96802 l 1.32362,3.35844 q 0.0691,0.16792 0.12842,0.40499 0.0691,0.22718 0.10865,0.38523 0.0395,-0.15805 0.10866,-0.38523 0.0691,-0.23707 0.13828,-0.40499 l 1.23473,-3.35844 h 0.92851 l -2.73615,7.21077 z"
         style="font-family:'JetBrains Mono';-inkscape-font-specification:'JetBrains Mono';fill:#ffffff"
         id="path6326" /><path
         d="m 110.72358,105.87841 q -0.36548,0 -0.59267,-0.19755 -0.22718,-0.20744 -0.22718,-0.54328 0,-0.33584 0.22718,-0.5334 0.22719,-0.20743 0.59267,-0.20743 0.37536,0 0.59267,0.20743 0.22719,0.19756 0.22719,0.5334 0,0.33584 -0.22719,0.54328 -0.21731,0.19755 -0.59267,0.19755 z m 0,4.14867 q -0.36548,0 -0.59267,-0.19756 -0.22718,-0.20743 -0.22718,-0.54328 0,-0.33584 0.22718,-0.5334 0.22719,-0.20743 0.59267,-0.20743 0.37536,0 0.59267,0.20743 0.22719,0.19756 0.22719,0.5334 0,0.33585 -0.22719,0.54328 -0.21731,0.19756 -0.59267,0.19756 z"
         style="font-family:'JetBrains Mono';-inkscape-font-specification:'JetBrains Mono';fill:#ffffff"
         id="path6328" /></g><g
       aria-label="Heslo:"
       id="text5901"
       style="font-size:9.87777px;fill:#ffffff;stroke-width:0.264583"><path
         d="m 13.554287,128.81686 v -7.21077 h 0.888999 v 3.08187 h 2.311399 v -3.08187 h 0.888999 v 7.21077 h -0.888999 v -3.31893 h -2.311399 v 3.31893 z"
         style="font-family:'JetBrains Mono';-inkscape-font-specification:'JetBrains Mono'"
         id="path6287" /><path
         d="m 21.525652,128.91564 q -0.642055,0 -1.126066,-0.25682 -0.474133,-0.25682 -0.740833,-0.72108 -0.256822,-0.47413 -0.256822,-1.09643 v -1.48167 q 0,-0.63217 0.256822,-1.09643 0.2667,-0.46425 0.740833,-0.72108 0.484011,-0.25682 1.126066,-0.25682 0.642055,0 1.116188,0.25682 0.484011,0.25683 0.740833,0.72108 0.266699,0.46426 0.266699,1.09643 v 0.95815 h -3.378197 v 0.52352 q 0,0.64206 0.325966,0.98778 0.325967,0.33584 0.928511,0.33584 0.513644,0 0.829733,-0.1778 0.316088,-0.18768 0.385233,-0.55315 h 0.888999 q -0.0889,0.68156 -0.671688,1.08655 -0.572911,0.39511 -1.432277,0.39511 z m -1.254477,-3.26954 h 2.508954 v -0.28646 q 0,-0.64205 -0.325967,-0.98777 -0.316088,-0.34572 -0.92851,-0.34572 -0.602544,0 -0.928511,0.34572 -0.325966,0.34572 -0.325966,0.98777 z"
         style="font-family:'JetBrains Mono';-inkscape-font-specification:'JetBrains Mono'"
         id="path6289" /><path
         d="m 27.284396,128.89589 q -0.83961,0 -1.37301,-0.38524 -0.5334,-0.38523 -0.5334,-1.05692 h 0.908755 q 0,0.30621 0.286456,0.48401 0.296333,0.16792 0.730955,0.16792 h 0.414866 q 0.523522,0 0.780344,-0.20743 0.256822,-0.21731 0.256822,-0.57291 0,-0.34572 -0.246944,-0.54328 -0.237067,-0.20743 -0.691444,-0.27657 l -0.730955,-0.11854 q -0.809978,-0.13829 -1.195211,-0.51364 -0.385233,-0.37536 -0.385233,-1.03717 0,-0.74083 0.474133,-1.13594 0.484011,-0.39511 1.382888,-0.39511 h 0.375355 q 0.829733,0 1.323622,0.37535 0.503766,0.36548 0.503766,0.9779 h -0.908755 q 0,-0.25682 -0.256822,-0.40499 -0.246944,-0.15804 -0.681566,-0.15804 h -0.375355 q -0.464256,0 -0.721078,0.19756 -0.246944,0.18767 -0.246944,0.54327 0,0.59267 0.839611,0.73096 l 0.730955,0.11853 q 0.879121,0.13829 1.274232,0.51364 0.404989,0.37536 0.404989,1.08656 0,0.75071 -0.484011,1.18533 -0.474133,0.42475 -1.442155,0.42475 z"
         style="font-family:'JetBrains Mono';-inkscape-font-specification:'JetBrains Mono'"
         id="path6291" /><path
         d="m 34.169206,128.81686 q -0.721077,0 -1.155699,-0.41486 -0.424744,-0.42475 -0.424744,-1.11619 v -4.86974 h -1.876777 v -0.80998 h 2.765776 v 5.67972 q 0,0.33584 0.187678,0.5334 0.187677,0.18768 0.503766,0.18768 h 1.679221 v 0.80997 z"
         style="font-family:'JetBrains Mono';-inkscape-font-specification:'JetBrains Mono'"
         id="path6293" /><path
         d="m 39.305651,128.89589 q -0.987777,0 -1.560688,-0.55316 -0.563033,-0.56303 -0.563033,-1.52118 v -1.44215 q 0,-0.96802 0.563033,-1.52118 0.572911,-0.55315 1.560688,-0.55315 0.987777,0 1.55081,0.55315 0.57291,0.55316 0.57291,1.5113 v 1.45203 q 0,0.95815 -0.57291,1.52118 -0.563033,0.55316 -1.55081,0.55316 z m 0,-0.79023 q 0.582788,0 0.908754,-0.32596 0.325967,-0.32597 0.325967,-0.95815 v -1.44215 q 0,-0.63218 -0.325967,-0.95814 -0.325966,-0.32597 -0.908754,-0.32597 -0.572911,0 -0.908755,0.32597 -0.325967,0.32596 -0.325967,0.95814 v 1.44215 q 0,0.63218 0.325967,0.95815 0.335844,0.32596 0.908755,0.32596 z"
         style="font-family:'JetBrains Mono';-inkscape-font-specification:'JetBrains Mono'"
         id="path6295" /><path
         d="m 45.232317,124.76698 q -0.365478,0 -0.592666,-0.19756 -0.227189,-0.20743 -0.227189,-0.54327 0,-0.33585 0.227189,-0.5334 0.227188,-0.20744 0.592666,-0.20744 0.375355,0 0.592666,0.20744 0.227189,0.19755 0.227189,0.5334 0,0.33584 -0.227189,0.54327 -0.217311,0.19756 -0.592666,0.19756 z m 0,4.14866 q -0.365478,0 -0.592666,-0.19755 -0.227189,-0.20744 -0.227189,-0.54328 0,-0.33585 0.227189,-0.5334 0.227188,-0.20743 0.592666,-0.20743 0.375355,0 0.592666,0.20743 0.227189,0.19755 0.227189,0.5334 0,0.33584 -0.227189,0.54328 -0.217311,0.19755 -0.592666,0.19755 z"
         style="font-family:'JetBrains Mono';-inkscape-font-specification:'JetBrains Mono'"
         id="path6297" /></g><g
       aria-label="Rodné číslo:"
       id="text5905"
       style="font-size:9.87777px;font-family:'JetBrains Mono';-inkscape-font-specification:'JetBrains Mono';fill:#ffffff;stroke-width:0.264583"><path
         d="m 13.77979,147.38098 v -7.21077 h 2.232376 q 0.642055,0 1.126065,0.2667 0.484011,0.25682 0.750711,0.72108 0.2667,0.46425 0.2667,1.08655 0,0.73096 -0.385233,1.25448 -0.375356,0.52352 -1.027288,0.72107 l 1.511299,3.16089 h -1.047044 l -1.382888,-3.06211 h -1.155699 v 3.06211 z m 0.888999,-3.86221 h 1.343377 q 0.553155,0 0.888999,-0.34572 0.335844,-0.3556 0.335844,-0.92851 0,-0.58279 -0.335844,-0.92851 -0.335844,-0.34572 -0.888999,-0.34572 h -1.343377 z"
         id="path6264" /><path
         d="m 21.761032,147.46 q -0.987777,0 -1.560688,-0.55315 -0.563033,-0.56303 -0.563033,-1.52118 v -1.44215 q 0,-0.96802 0.563033,-1.52118 0.572911,-0.55315 1.560688,-0.55315 0.987777,0 1.55081,0.55315 0.572911,0.55316 0.572911,1.5113 v 1.45203 q 0,0.95815 -0.572911,1.52118 -0.563033,0.55315 -1.55081,0.55315 z m 0,-0.79022 q 0.582788,0 0.908755,-0.32596 0.325966,-0.32597 0.325966,-0.95815 v -1.44215 q 0,-0.63218 -0.325966,-0.95815 -0.325967,-0.32596 -0.908755,-0.32596 -0.572911,0 -0.908755,0.32596 -0.325966,0.32597 -0.325966,0.95815 v 1.44215 q 0,0.63218 0.325966,0.95815 0.335844,0.32596 0.908755,0.32596 z"
         id="path6266" /><path
         d="m 27.37161,147.47976 q -0.809978,0 -1.313744,-0.54328 -0.493888,-0.54328 -0.493888,-1.47179 v -1.59032 q 0,-0.93839 0.493888,-1.48166 0.493889,-0.54328 1.313744,-0.54328 0.612421,0 1.007532,0.30621 0.395111,0.30621 0.464255,0.82973 h 0.02963 l -0.01976,-1.23472 v -1.58044 h 0.889 v 7.21077 h -0.889 v -1.03716 h -0.0099 q -0.06914,0.5334 -0.464255,0.83961 -0.395111,0.29633 -1.007532,0.29633 z m 0.296333,-0.77047 q 0.553155,0 0.869244,-0.34572 0.316088,-0.34572 0.316088,-0.95814 v -1.48167 q 0,-0.61242 -0.316088,-0.95814 -0.316089,-0.34572 -0.869244,-0.34572 -0.563033,0 -0.889,0.33584 -0.325966,0.33584 -0.325966,0.96802 v 1.48167 q 0,0.63217 0.325966,0.96802 0.325967,0.33584 0.889,0.33584 z"
         id="path6268" /><path
         d="m 31.559788,147.38098 v -5.43277 h 0.889 v 1.03716 h 0.0099 q 0.06914,-0.54327 0.4445,-0.83961 0.375355,-0.29633 0.997655,-0.29633 0.819855,0 1.303866,0.50377 0.48401,0.50376 0.48401,1.37301 v 3.65477 h -0.888999 v -3.556 q 0,-0.58278 -0.316089,-0.889 -0.306211,-0.31608 -0.83961,-0.31608 -0.553155,0 -0.879122,0.33584 -0.316088,0.33584 -0.316088,0.96802 v 3.45722 z"
         id="path6270" /><path
         d="m 39.541031,147.47976 q -0.642055,0 -1.126066,-0.25682 -0.474133,-0.25682 -0.740833,-0.72108 -0.256822,-0.47413 -0.256822,-1.09643 v -1.48167 q 0,-0.63218 0.256822,-1.09643 0.2667,-0.46426 0.740833,-0.72108 0.484011,-0.25682 1.126066,-0.25682 0.642055,0 1.116188,0.25682 0.484011,0.25682 0.740833,0.72108 0.266699,0.46425 0.266699,1.09643 v 0.95815 h -3.378197 v 0.52352 q 0,0.64205 0.325966,0.98777 0.325967,0.33585 0.928511,0.33585 0.513644,0 0.829733,-0.1778 0.316088,-0.18768 0.385233,-0.55316 h 0.888999 q -0.0889,0.68157 -0.671689,1.08656 -0.57291,0.39511 -1.432276,0.39511 z m -1.254477,-3.26954 h 2.508954 v -0.28646 q 0,-0.64205 -0.325967,-0.98778 -0.316088,-0.34572 -0.92851,-0.34572 -0.602544,0 -0.928511,0.34572 -0.325966,0.34573 -0.325966,0.98778 z m 0.681566,-3.2004 1.047044,-1.38289 h 0.958143 l -1.096432,1.38289 z"
         id="path6272" /><path
         d="m 51.433874,147.47976 q -0.987777,0 -1.580443,-0.55316 -0.582788,-0.55315 -0.582788,-1.52117 v -1.48167 q 0,-0.96802 0.582788,-1.52117 0.592666,-0.55316 1.580443,-0.55316 0.938389,0 1.511299,0.50377 0.572911,0.50376 0.602544,1.37301 h -0.888999 q -0.02963,-0.52353 -0.3556,-0.8001 -0.316088,-0.28646 -0.869244,-0.28646 -0.582788,0 -0.92851,0.33585 -0.345722,0.32596 -0.345722,0.93838 v 1.49155 q 0,0.61242 0.345722,0.94826 0.345722,0.33585 0.92851,0.33585 0.553156,0 0.869244,-0.28646 0.325967,-0.28645 0.3556,-0.8001 h 0.888999 q -0.02963,0.86925 -0.602544,1.37301 -0.57291,0.50377 -1.511299,0.50377 z m -0.404988,-6.46994 -1.382888,-1.38289 h 0.977899 l 0.809977,0.77047 0.790222,-0.77047 h 0.997655 l -1.37301,1.38289 z"
         id="path6274" /><path
         d="M 55.197309,147.38098 V 146.571 h 1.926165 v -3.81282 h -1.72861 v -0.80997 h 2.617609 v 4.62279 h 1.827388 v 0.80998 z m 1.698976,-6.37116 1.047044,-1.38289 h 0.958144 l -1.096433,1.38289 z"
         id="path6276" /><path
         d="m 63.079774,147.46 q -0.839611,0 -1.37301,-0.38523 -0.5334,-0.38523 -0.5334,-1.05692 h 0.908755 q 0,0.30621 0.286455,0.48401 0.296333,0.16792 0.730955,0.16792 h 0.414867 q 0.523521,0 0.780343,-0.20743 0.256823,-0.21731 0.256823,-0.57291 0,-0.34572 -0.246945,-0.54328 -0.237066,-0.20743 -0.691444,-0.27658 l -0.730955,-0.11853 q -0.809977,-0.13829 -1.19521,-0.51364 -0.385233,-0.37536 -0.385233,-1.03717 0,-0.74083 0.474133,-1.13594 0.484011,-0.39511 1.382888,-0.39511 h 0.375355 q 0.829733,0 1.323621,0.37535 0.503767,0.36548 0.503767,0.9779 h -0.908755 q 0,-0.25682 -0.256822,-0.40499 -0.246944,-0.15804 -0.681566,-0.15804 H 63.13904 q -0.464255,0 -0.721077,0.19755 -0.246944,0.18768 -0.246944,0.54328 0,0.59267 0.83961,0.73095 l 0.730955,0.11854 q 0.879122,0.13829 1.274233,0.51364 0.404988,0.37536 0.404988,1.08656 0,0.75071 -0.48401,1.18533 Q 64.462662,147.46 63.49464,147.46 Z"
         id="path6278" /><path
         d="m 69.964584,147.38098 q -0.721078,0 -1.155699,-0.41486 -0.424745,-0.42475 -0.424745,-1.11619 v -4.86974 h -1.876776 v -0.80998 h 2.765776 v 5.67972 q 0,0.33584 0.187677,0.5334 0.187678,0.18767 0.503767,0.18767 h 1.679221 v 0.80998 z"
         id="path6280" /><path
         d="m 75.101028,147.46 q -0.987777,0 -1.560687,-0.55315 -0.563033,-0.56303 -0.563033,-1.52118 v -1.44215 q 0,-0.96802 0.563033,-1.52118 0.57291,-0.55315 1.560687,-0.55315 0.987777,0 1.55081,0.55315 0.572911,0.55316 0.572911,1.5113 v 1.45203 q 0,0.95815 -0.572911,1.52118 -0.563033,0.55315 -1.55081,0.55315 z m 0,-0.79022 q 0.582789,0 0.908755,-0.32596 0.325967,-0.32597 0.325967,-0.95815 v -1.44215 q 0,-0.63218 -0.325967,-0.95815 -0.325966,-0.32596 -0.908755,-0.32596 -0.57291,0 -0.908755,0.32596 -0.325966,0.32597 -0.325966,0.95815 v 1.44215 q 0,0.63218 0.325966,0.95815 0.335845,0.32596 0.908755,0.32596 z"
         id="path6282" /><path
         d="m 81.027695,143.3311 q -0.365478,0 -0.592667,-0.19756 -0.227188,-0.20743 -0.227188,-0.54328 0,-0.33584 0.227188,-0.5334 0.227189,-0.20743 0.592667,-0.20743 0.375355,0 0.592666,0.20743 0.227189,0.19756 0.227189,0.5334 0,0.33585 -0.227189,0.54328 -0.217311,0.19756 -0.592666,0.19756 z m 0,4.14866 q -0.365478,0 -0.592667,-0.19756 -0.227188,-0.20743 -0.227188,-0.54327 0,-0.33585 0.227188,-0.5334 0.227189,-0.20744 0.592667,-0.20744 0.375355,0 0.592666,0.20744 0.227189,0.19755 0.227189,0.5334 0,0.33584 -0.227189,0.54327 -0.217311,0.19756 -0.592666,0.19756 z"
         id="path6284" /></g></g></svg>
